<svg xmlns="http://www.w3.org/2000/svg" xmlns:xlink="http://www.w3.org/1999/xlink" width="500" zoomAndPan="magnify" viewBox="0 0 375 374.999991" height="500" preserveAspectRatio="xMidYMid meet" version="1.0"><defs><g/><clipPath id="bb7947d8e7"><path d="M 58.613281 212.820312 L 61.242188 212.820312 L 61.242188 215.355469 L 58.613281 215.355469 Z M 58.613281 212.820312 " clip-rule="nonzero"/></clipPath><clipPath id="1af78e1a51"><path d="M 57 150.105469 L 61 150.105469 L 61 154 L 57 154 Z M 57 150.105469 " clip-rule="nonzero"/></clipPath><clipPath id="e0a5fdcdcf"><path d="M 25.472656 184 L 28 184 L 28 187 L 25.472656 187 Z M 25.472656 184 " clip-rule="nonzero"/></clipPath><clipPath id="363124024e"><path d="M 88 178 L 91.472656 178 L 91.472656 182 L 88 182 Z M 88 178 " clip-rule="nonzero"/></clipPath></defs><path fill="#bc1823" d="M 30.304688 170.824219 L 28.335938 192.835938 L 26.65625 185.273438 Z M 30.757812 169.613281 L 33.777344 180.207031 L 28.683594 192.816406 Z M 43.175781 163.269531 L 33.996094 179.722656 L 30.886719 168.804688 Z M 38.984375 160.597656 L 43.226562 162.792969 L 31.523438 168.0625 Z M 37.148438 159.648438 L 38.664062 160.429688 L 31.914062 167.1875 Z M 44.175781 154.914062 L 38.917969 160.175781 L 37.433594 159.40625 Z M 43.507812 162.550781 L 39.238281 160.339844 L 45.191406 154.382812 Z M 45.683594 154.054688 L 55.917969 158.046875 L 43.9375 162.5 Z M 58.6875 151.835938 L 56.351562 157.847656 L 46.171875 153.878906 Z M 59.046875 151.863281 L 72.058594 158.824219 L 56.695312 157.914062 Z M 75.296875 155.207031 L 72.777344 158.820312 L 60.09375 152.03125 Z M 75.609375 155.359375 L 83.179688 163.121094 L 73.09375 158.964844 Z M 79.902344 171.660156 L 73.265625 159.40625 L 83.652344 163.6875 Z M 89.347656 179.113281 L 80.109375 172.027344 L 83.867188 164.046875 Z M 78.277344 191.714844 L 80.039062 172.40625 L 89.453125 179.632812 Z M 87.867188 194.308594 L 78.386719 192.101562 L 89.480469 180.113281 Z M 77.691406 207.375 L 78.226562 192.417969 L 87.714844 194.628906 Z M 77.339844 207.601562 L 61.410156 200.710938 L 77.875 192.523438 Z M 56.320312 211.644531 L 61.027344 200.996094 L 76.851562 207.839844 Z M 59.90625 213.941406 L 56.480469 211.964844 L 75.382812 208.464844 Z M 46.308594 211.511719 L 55.9375 212.050781 L 58.949219 213.785156 Z M 41.546875 200.246094 L 55.472656 211.679688 L 43.65625 211.015625 Z M 29.121094 194.507812 L 41.144531 199.972656 L 43.21875 210.585938 Z M 32.980469 200.667969 L 29.863281 195.875 L 40.472656 207.976562 Z M 40.917969 199.414062 L 28.644531 193.835938 L 33.933594 180.738281 Z M 50.46875 185.210938 L 34.277344 180.0625 L 43.585938 163.382812 Z M 60.335938 172.027344 L 50.925781 185.050781 L 44.070312 163.316406 Z M 60.292969 171.457031 L 44.207031 162.839844 L 56.285156 158.351562 Z M 60.800781 171.480469 L 56.761719 158.261719 L 72.363281 159.1875 Z M 61.246094 171.710938 L 72.804688 159.425781 L 79.527344 171.835938 Z M 65.933594 184.574219 L 77.644531 192.179688 L 61.253906 200.328125 Z M 61.054688 172.191406 L 79.304688 172.316406 L 65.921875 183.882812 Z M 65.464844 184.039062 L 51.34375 185.292969 L 60.636719 172.4375 Z M 51.265625 185.785156 L 65.515625 184.519531 L 60.859375 200.199219 Z M 60.609375 200.917969 L 55.894531 211.578125 L 41.839844 200.042969 Z M 41.324219 199.320312 L 34.316406 180.582031 L 50.460938 185.714844 Z M 50.839844 186.015625 L 60.476562 200.496094 L 41.703125 199.621094 Z M 78.058594 192.203125 Z M 77.917969 191.863281 L 66.15625 184.226562 L 79.679688 172.539062 Z M 28.242188 193.996094 L 28.410156 193.957031 L 28.265625 194.050781 L 28.324219 194.144531 L 28.328125 194.148438 L 32.703125 200.871094 L 32.847656 200.777344 L 32.726562 200.902344 L 43.390625 211.304688 L 43.511719 211.179688 L 43.480469 211.351562 L 59.859375 214.300781 L 59.890625 214.132812 L 59.949219 214.292969 L 77.558594 208.058594 L 77.5 207.894531 L 77.636719 208.003906 L 88.152344 194.628906 L 88.015625 194.519531 L 88.1875 194.539062 L 89.878906 179.628906 L 89.707031 179.609375 L 89.871094 179.550781 L 84.046875 163.539062 L 83.886719 163.597656 L 84.007812 163.476562 L 75.710938 154.972656 L 75.585938 155.089844 L 75.621094 154.921875 L 58.988281 151.449219 L 58.957031 151.617188 L 58.925781 151.449219 L 45.496094 153.640625 L 45.523438 153.808594 L 45.425781 153.664062 L 37 159.28125 L 37.09375 159.425781 L 36.953125 159.328125 L 30.59375 168.480469 L 30.585938 168.484375 L 30.585938 168.492188 L 30.527344 168.574219 L 30.667969 168.675781 L 30.503906 168.632812 L 26.3125 185.226562 L 26.480469 185.269531 L 26.3125 185.308594 L 28.242188 193.996094 " fill-opacity="1" fill-rule="nonzero"/><path fill="#ffe533" d="M 43.59375 164.339844 C 44.433594 164.382812 45.152344 163.738281 45.195312 162.894531 C 45.238281 162.054688 44.59375 161.339844 43.753906 161.292969 C 42.914062 161.25 42.195312 161.894531 42.152344 162.738281 C 42.109375 163.578125 42.753906 164.292969 43.59375 164.339844 " fill-opacity="1" fill-rule="nonzero"/><path fill="#ffe533" d="M 52.261719 185.632812 C 52.304688 184.847656 51.699219 184.179688 50.914062 184.136719 C 50.128906 184.097656 49.460938 184.699219 49.417969 185.484375 C 49.378906 186.269531 49.980469 186.9375 50.765625 186.976562 C 51.550781 187.019531 52.21875 186.417969 52.261719 185.632812 " fill-opacity="1" fill-rule="nonzero"/><path fill="#ffe533" d="M 39.457031 199.710938 C 39.402344 200.734375 40.1875 201.605469 41.210938 201.660156 C 42.234375 201.714844 43.109375 200.925781 43.164062 199.902344 C 43.214844 198.878906 42.429688 198.007812 41.40625 197.953125 C 40.382812 197.898438 39.507812 198.6875 39.457031 199.710938 " fill-opacity="1" fill-rule="nonzero"/><path fill="#ffe533" d="M 57.84375 158.148438 C 57.882812 157.375 57.292969 156.71875 56.519531 156.675781 C 55.75 156.636719 55.089844 157.230469 55.050781 158 C 55.007812 158.773438 55.601562 159.429688 56.375 159.46875 C 57.144531 159.511719 57.804688 158.917969 57.84375 158.148438 " fill-opacity="1" fill-rule="nonzero"/><path fill="#ffe533" d="M 35.664062 180.371094 C 35.710938 179.449219 35 178.660156 34.078125 178.613281 C 33.15625 178.566406 32.371094 179.273438 32.320312 180.195312 C 32.273438 181.117188 32.980469 181.90625 33.90625 181.953125 C 34.828125 182.003906 35.613281 181.292969 35.664062 180.371094 " fill-opacity="1" fill-rule="nonzero"/><path fill="#ffe533" d="M 54.699219 211.789062 C 54.664062 212.5 55.207031 213.105469 55.917969 213.144531 C 56.628906 213.179688 57.234375 212.636719 57.273438 211.925781 C 57.308594 211.214844 56.761719 210.609375 56.054688 210.574219 C 55.34375 210.535156 54.738281 211.082031 54.699219 211.789062 " fill-opacity="1" fill-rule="nonzero"/><path fill="#ffe533" d="M 76.570312 192.117188 C 76.523438 192.945312 77.160156 193.648438 77.988281 193.695312 C 78.8125 193.738281 79.519531 193.101562 79.5625 192.277344 C 79.605469 191.449219 78.96875 190.742188 78.144531 190.699219 C 77.316406 190.65625 76.613281 191.292969 76.570312 192.117188 " fill-opacity="1" fill-rule="nonzero"/><path fill="#ffe533" d="M 60.8125 202.527344 C 61.835938 202.582031 62.710938 201.796875 62.765625 200.773438 C 62.816406 199.75 62.03125 198.875 61.007812 198.824219 C 59.984375 198.769531 59.113281 199.554688 59.058594 200.578125 C 59.003906 201.601562 59.789062 202.476562 60.8125 202.527344 " fill-opacity="1" fill-rule="nonzero"/><path fill="#ffe533" d="M 74.214844 159.070312 C 74.253906 158.316406 73.679688 157.675781 72.925781 157.636719 C 72.171875 157.597656 71.53125 158.175781 71.492188 158.925781 C 71.453125 159.679688 72.03125 160.320312 72.78125 160.359375 C 73.535156 160.398438 74.175781 159.820312 74.214844 159.070312 " fill-opacity="1" fill-rule="nonzero"/><path fill="#ffe533" d="M 81.492188 172.167969 C 81.539062 171.277344 80.855469 170.515625 79.964844 170.46875 C 79.070312 170.421875 78.3125 171.105469 78.265625 172 C 78.21875 172.890625 78.902344 173.648438 79.792969 173.695312 C 80.683594 173.742188 81.445312 173.058594 81.492188 172.167969 " fill-opacity="1" fill-rule="nonzero"/><path fill="#ffe533" d="M 60.648438 173.1875 C 61.359375 173.226562 61.960938 172.679688 62 171.972656 C 62.035156 171.265625 61.492188 170.660156 60.785156 170.625 C 60.078125 170.585938 59.472656 171.132812 59.433594 171.839844 C 59.398438 172.546875 59.941406 173.152344 60.648438 173.1875 " fill-opacity="1" fill-rule="nonzero"/><path fill="#ffe533" d="M 67.1875 184.320312 C 67.226562 183.5625 66.644531 182.914062 65.886719 182.875 C 65.128906 182.835938 64.480469 183.417969 64.441406 184.175781 C 64.402344 184.933594 64.984375 185.582031 65.742188 185.621094 C 66.5 185.664062 67.148438 185.078125 67.1875 184.320312 " fill-opacity="1" fill-rule="nonzero"/><path fill="#6ac66b" d="M 30.8125 168.890625 L 38.78125 171.101562 L 29.015625 181.082031 Z M 45.027344 154.550781 L 38.96875 170.796875 L 31 168.585938 Z M 37.21875 159.550781 L 44.175781 154.914062 L 31.914062 167.1875 Z M 45.613281 154.15625 L 53.550781 162.53125 L 39.5 170.550781 Z M 66.628906 155.433594 L 53.882812 162.386719 L 45.949219 154.011719 Z M 58.933594 151.796875 L 66.273438 155.066406 L 47.019531 153.738281 Z M 74.097656 154.957031 L 67.265625 155.128906 L 60.496094 152.117188 Z M 83.054688 162.992188 L 67.925781 155.457031 L 75.515625 155.265625 Z M 70.269531 167.738281 L 67.519531 155.640625 L 83.386719 163.542969 Z M 84.242188 176.363281 L 70.613281 168.0625 L 83.726562 163.867188 Z M 89.390625 179.242188 L 84.597656 176.613281 L 84.105469 164.703125 Z M 84.449219 194.257812 L 84.601562 177.007812 L 89.5 179.691406 Z M 87.859375 194.378906 L 84.53125 195.074219 L 89.363281 181.136719 Z M 78.59375 206.226562 L 84.367188 195.488281 L 84.378906 195.480469 L 84.375 195.476562 L 84.382812 195.457031 L 87.589844 194.785156 Z M 77.429688 207.667969 L 70.449219 204.125 L 83.78125 195.851562 Z M 60.5625 213.710938 L 70.09375 204.332031 L 77.066406 207.867188 Z M 59.871094 213.90625 L 49.742188 206.664062 L 69.582031 204.351562 Z M 43.914062 211.078125 L 49.285156 206.761719 L 59.167969 213.824219 Z M 33.523438 201.199219 L 48.929688 206.605469 L 43.523438 210.953125 Z M 40.015625 189.390625 L 48.875 206.222656 L 33.136719 200.699219 Z M 39.800781 188.574219 L 29.0625 181.527344 L 38.921875 171.449219 Z M 53.023438 177.179688 L 40.210938 188.488281 L 39.332031 171.371094 Z M 53.238281 176.746094 L 39.609375 170.964844 L 53.597656 162.980469 Z M 55.84375 193.078125 L 40.492188 188.882812 L 53.300781 177.578125 Z M 54.320312 162.539062 L 67.082031 155.582031 L 69.835938 167.691406 Z M 69.558594 168.035156 L 53.722656 176.695312 L 54.082031 162.894531 Z M 71.898438 184.667969 L 54.023438 177.082031 L 69.921875 168.382812 Z M 72.378906 184.628906 L 70.414062 168.421875 L 84.015625 176.710938 Z M 72.585938 185.074219 L 84.253906 177.128906 L 84.101562 194.847656 Z M 72.378906 185.527344 L 83.890625 195.300781 L 70.351562 203.699219 Z M 56.546875 193.425781 L 71.898438 185.472656 L 69.863281 203.707031 Z M 53.777344 177.5 L 71.621094 185.074219 L 56.320312 193.003906 Z M 49.277344 206.101562 L 40.433594 189.292969 L 55.835938 193.5 Z M 56.203125 193.683594 L 69.570312 204.003906 L 49.621094 206.332031 Z M 29.035156 182 L 39.75 189.035156 L 32.914062 200.269531 Z M 26.671875 185.285156 L 28.691406 182.035156 L 32.28125 198.949219 Z M 30.003906 172.015625 L 28.605469 181.519531 L 26.917969 184.238281 Z M 26.3125 185.226562 L 26.480469 185.269531 L 26.320312 185.335938 L 32.6875 200.84375 L 32.847656 200.777344 L 32.726562 200.902344 L 43.390625 211.304688 L 43.511719 211.179688 L 43.480469 211.351562 L 59.859375 214.300781 L 59.890625 214.132812 L 59.949219 214.292969 L 77.558594 208.058594 L 77.5 207.894531 L 77.636719 208.003906 L 88.152344 194.628906 L 88.015625 194.519531 L 88.1875 194.539062 L 89.878906 179.628906 L 89.707031 179.609375 L 89.871094 179.550781 L 84.046875 163.539062 L 83.886719 163.597656 L 84.007812 163.476562 L 75.710938 154.972656 L 75.585938 155.089844 L 75.621094 154.921875 L 58.988281 151.449219 L 58.957031 151.617188 L 58.925781 151.449219 L 45.496094 153.640625 L 45.523438 153.808594 L 45.425781 153.664062 L 37 159.28125 L 37.09375 159.425781 L 36.953125 159.328125 L 30.527344 168.574219 L 30.667969 168.675781 L 30.503906 168.632812 L 26.3125 185.226562 " fill-opacity="1" fill-rule="nonzero"/><path fill="#16a637" d="M 54.050781 193.339844 C 54.050781 194.507812 54.996094 195.457031 56.164062 195.457031 C 57.335938 195.457031 58.28125 194.507812 58.28125 193.339844 C 58.28125 192.171875 57.335938 191.222656 56.164062 191.222656 C 54.996094 191.222656 54.050781 192.171875 54.050781 193.339844 " fill-opacity="1" fill-rule="nonzero"/><path fill="#16a637" d="M 43.496094 210.429688 C 43.078125 210.429688 42.738281 210.769531 42.738281 211.1875 C 42.738281 211.605469 43.078125 211.945312 43.496094 211.945312 C 43.914062 211.945312 44.253906 211.605469 44.253906 211.1875 C 44.253906 210.769531 43.914062 210.429688 43.496094 210.429688 " fill-opacity="1" fill-rule="nonzero"/><path fill="#16a637" d="M 50.296875 206.554688 C 50.296875 206.003906 49.851562 205.554688 49.296875 205.554688 C 48.746094 205.554688 48.296875 206.003906 48.296875 206.554688 C 48.296875 207.109375 48.746094 207.554688 49.296875 207.554688 C 49.851562 207.554688 50.296875 207.109375 50.296875 206.554688 " fill-opacity="1" fill-rule="nonzero"/><g clip-path="url(#bb7947d8e7)"><path fill="#16a637" d="M 58.632812 214.15625 C 58.632812 214.867188 59.207031 215.445312 59.917969 215.445312 C 60.628906 215.445312 61.207031 214.867188 61.207031 214.15625 C 61.207031 213.445312 60.628906 212.871094 59.917969 212.871094 C 59.207031 212.871094 58.632812 213.445312 58.632812 214.15625 " fill-opacity="1" fill-rule="nonzero"/></g><g clip-path="url(#1af78e1a51)"><path fill="#16a637" d="M 58.960938 150.105469 C 58.121094 150.105469 57.445312 150.785156 57.445312 151.621094 C 57.445312 152.457031 58.121094 153.136719 58.960938 153.136719 C 59.796875 153.136719 60.472656 152.457031 60.472656 151.621094 C 60.472656 150.785156 59.796875 150.105469 58.960938 150.105469 " fill-opacity="1" fill-rule="nonzero"/></g><path fill="#16a637" d="M 37.089844 158.394531 C 36.527344 158.394531 36.066406 158.851562 36.066406 159.417969 C 36.066406 159.980469 36.527344 160.441406 37.089844 160.441406 C 37.65625 160.441406 38.113281 159.980469 38.113281 159.417969 C 38.113281 158.851562 37.65625 158.394531 37.089844 158.394531 " fill-opacity="1" fill-rule="nonzero"/><path fill="#16a637" d="M 45.542969 155.140625 C 46.277344 155.140625 46.871094 154.546875 46.871094 153.8125 C 46.871094 153.082031 46.277344 152.488281 45.542969 152.488281 C 44.8125 152.488281 44.21875 153.082031 44.21875 153.8125 C 44.21875 154.546875 44.8125 155.140625 45.542969 155.140625 " fill-opacity="1" fill-rule="nonzero"/><path fill="#16a637" d="M 38.195312 188.976562 C 38.195312 190.003906 39.027344 190.832031 40.050781 190.832031 C 41.078125 190.832031 41.90625 190.003906 41.90625 188.976562 C 41.90625 187.953125 41.078125 187.121094 40.050781 187.121094 C 39.027344 187.121094 38.195312 187.953125 38.195312 188.976562 " fill-opacity="1" fill-rule="nonzero"/><g clip-path="url(#e0a5fdcdcf)"><path fill="#16a637" d="M 26.503906 184.269531 C 25.9375 184.269531 25.480469 184.730469 25.480469 185.292969 C 25.480469 185.859375 25.9375 186.316406 26.503906 186.316406 C 27.066406 186.316406 27.523438 185.859375 27.523438 185.292969 C 27.523438 184.730469 27.066406 184.269531 26.503906 184.269531 " fill-opacity="1" fill-rule="nonzero"/></g><path fill="#16a637" d="M 27.488281 181.574219 C 27.488281 182.285156 28.0625 182.863281 28.773438 182.863281 C 29.488281 182.863281 30.0625 182.285156 30.0625 181.574219 C 30.0625 180.863281 29.488281 180.285156 28.773438 180.285156 C 28.0625 180.285156 27.488281 180.863281 27.488281 181.574219 " fill-opacity="1" fill-rule="nonzero"/><path fill="#16a637" d="M 30.6875 169.71875 C 31.25 169.71875 31.707031 169.261719 31.707031 168.695312 C 31.707031 168.132812 31.25 167.675781 30.6875 167.675781 C 30.121094 167.675781 29.664062 168.132812 29.664062 168.695312 C 29.664062 169.261719 30.121094 169.71875 30.6875 169.71875 " fill-opacity="1" fill-rule="nonzero"/><path fill="#16a637" d="M 39.140625 169.164062 C 38.113281 169.164062 37.285156 169.996094 37.285156 171.023438 C 37.285156 172.046875 38.113281 172.878906 39.140625 172.878906 C 40.164062 172.878906 40.996094 172.046875 40.996094 171.023438 C 40.996094 169.996094 40.164062 169.164062 39.140625 169.164062 " fill-opacity="1" fill-rule="nonzero"/><path fill="#16a637" d="M 34.0625 200.824219 C 34.0625 200.175781 33.539062 199.648438 32.890625 199.648438 C 32.242188 199.648438 31.714844 200.175781 31.714844 200.824219 C 31.714844 201.472656 32.242188 201.996094 32.890625 201.996094 C 33.539062 201.996094 34.0625 201.472656 34.0625 200.824219 " fill-opacity="1" fill-rule="nonzero"/><path fill="#16a637" d="M 84.445312 175.621094 C 83.851562 175.621094 83.371094 176.101562 83.371094 176.695312 C 83.371094 177.292969 83.851562 177.773438 84.445312 177.773438 C 85.042969 177.773438 85.523438 177.292969 85.523438 176.695312 C 85.523438 176.101562 85.042969 175.621094 84.445312 175.621094 " fill-opacity="1" fill-rule="nonzero"/><path fill="#16a637" d="M 82.90625 195.289062 C 82.90625 196.039062 83.519531 196.652344 84.273438 196.652344 C 85.023438 196.652344 85.636719 196.039062 85.636719 195.289062 C 85.636719 194.535156 85.023438 193.925781 84.273438 193.925781 C 83.519531 193.925781 82.90625 194.535156 82.90625 195.289062 " fill-opacity="1" fill-rule="nonzero"/><path fill="#16a637" d="M 83.851562 162.355469 C 83.179688 162.355469 82.636719 162.898438 82.636719 163.566406 C 82.636719 164.234375 83.179688 164.777344 83.851562 164.777344 C 84.519531 164.777344 85.0625 164.234375 85.0625 163.566406 C 85.0625 162.898438 84.519531 162.355469 83.851562 162.355469 " fill-opacity="1" fill-rule="nonzero"/><path fill="#16a637" d="M 77.488281 208.894531 C 78.054688 208.894531 78.511719 208.4375 78.511719 207.871094 C 78.511719 207.308594 78.054688 206.851562 77.488281 206.851562 C 76.921875 206.851562 76.464844 207.308594 76.464844 207.871094 C 76.464844 208.4375 76.921875 208.894531 77.488281 208.894531 " fill-opacity="1" fill-rule="nonzero"/><g clip-path="url(#363124024e)"><path fill="#16a637" d="M 91.21875 179.613281 C 91.21875 178.777344 90.539062 178.097656 89.703125 178.097656 C 88.867188 178.097656 88.1875 178.777344 88.1875 179.613281 C 88.1875 180.449219 88.867188 181.128906 89.703125 181.128906 C 90.539062 181.128906 91.21875 180.449219 91.21875 179.613281 " fill-opacity="1" fill-rule="nonzero"/></g><path fill="#16a637" d="M 86.984375 194.539062 C 86.984375 195.101562 87.441406 195.5625 88.007812 195.5625 C 88.574219 195.5625 89.03125 195.101562 89.03125 194.539062 C 89.03125 193.972656 88.574219 193.515625 88.007812 193.515625 C 87.441406 193.515625 86.984375 193.972656 86.984375 194.539062 " fill-opacity="1" fill-rule="nonzero"/><path fill="#16a637" d="M 75.539062 154.027344 C 74.976562 154.027344 74.519531 154.484375 74.519531 155.050781 C 74.519531 155.613281 74.976562 156.074219 75.539062 156.074219 C 76.105469 156.074219 76.5625 155.613281 76.5625 155.050781 C 76.5625 154.484375 76.105469 154.027344 75.539062 154.027344 " fill-opacity="1" fill-rule="nonzero"/><path fill="#16a637" d="M 55.691406 177.085938 C 55.691406 175.878906 54.710938 174.898438 53.503906 174.898438 C 52.292969 174.898438 51.3125 175.878906 51.3125 177.085938 C 51.3125 178.296875 52.292969 179.277344 53.503906 179.277344 C 54.710938 179.277344 55.691406 178.296875 55.691406 177.085938 " fill-opacity="1" fill-rule="nonzero"/><path fill="#16a637" d="M 74.167969 185.050781 C 74.167969 183.960938 73.285156 183.078125 72.195312 183.078125 C 71.101562 183.078125 70.21875 183.960938 70.21875 185.050781 C 70.21875 186.144531 71.101562 187.027344 72.195312 187.027344 C 73.285156 187.027344 74.167969 186.144531 74.167969 185.050781 " fill-opacity="1" fill-rule="nonzero"/><path fill="#16a637" d="M 53.84375 160.027344 C 52.421875 160.027344 51.269531 161.179688 51.269531 162.601562 C 51.269531 164.023438 52.421875 165.175781 53.84375 165.175781 C 55.261719 165.175781 56.414062 164.023438 56.414062 162.601562 C 56.414062 161.179688 55.261719 160.027344 53.84375 160.027344 " fill-opacity="1" fill-rule="nonzero"/><path fill="#16a637" d="M 67.230469 154.339844 C 66.6875 154.339844 66.246094 154.78125 66.246094 155.324219 C 66.246094 155.871094 66.6875 156.3125 67.230469 156.3125 C 67.773438 156.3125 68.214844 155.871094 68.214844 155.324219 C 68.214844 154.78125 67.773438 154.339844 67.230469 154.339844 " fill-opacity="1" fill-rule="nonzero"/><path fill="#16a637" d="M 68.453125 204.109375 C 68.453125 205.003906 69.175781 205.726562 70.070312 205.726562 C 70.960938 205.726562 71.683594 205.003906 71.683594 204.109375 C 71.683594 203.21875 70.960938 202.496094 70.070312 202.496094 C 69.175781 202.496094 68.453125 203.21875 68.453125 204.109375 " fill-opacity="1" fill-rule="nonzero"/><path fill="#16a637" d="M 70.144531 165.988281 C 69.050781 165.988281 68.160156 166.878906 68.160156 167.972656 C 68.160156 169.070312 69.050781 169.960938 70.144531 169.960938 C 71.242188 169.960938 72.132812 169.070312 72.132812 167.972656 C 72.132812 166.878906 71.242188 165.988281 70.144531 165.988281 " fill-opacity="1" fill-rule="nonzero"/><g fill="#0c1a62" fill-opacity="1"><g transform="translate(97.402284, 190.725631)"><g><path d="M 24.625 -23.421875 L 10.375 -23.421875 L 10.375 -16.640625 L 23.5 -16.640625 L 23.5 -10.78125 L 10.375 -10.78125 L 10.375 0 L 2.921875 0 L 2.921875 -29.265625 L 24.625 -29.265625 Z M 24.625 -23.421875 "/></g></g></g><g fill="#0c1a62" fill-opacity="1"><g transform="translate(124.745062, 190.725631)"><g><path d="M 10.375 0 L 2.921875 0 L 2.921875 -29.265625 L 10.375 -29.265625 Z M 10.375 0 "/></g></g></g><g fill="#0c1a62" fill-opacity="1"><g transform="translate(140.130715, 190.725631)"><g><path d="M 25.84375 -23.421875 L 10.375 -23.421875 L 10.375 -17.609375 L 24.328125 -17.609375 L 24.328125 -11.75 L 10.375 -11.75 L 10.375 -5.859375 L 26.296875 -5.859375 L 26.296875 0 L 2.921875 0 L 2.921875 -29.265625 L 25.84375 -29.265625 Z M 25.84375 -23.421875 "/></g></g></g><g fill="#0c1a62" fill-opacity="1"><g transform="translate(170.400053, 190.725631)"><g><path d="M 10.375 -6.234375 L 22.78125 -6.234375 L 22.78125 0 L 2.921875 0 L 2.921875 -29.265625 L 10.375 -29.265625 Z M 10.375 -6.234375 "/></g></g></g><g fill="#0c1a62" fill-opacity="1"><g transform="translate(195.903281, 190.725631)"><g><path d="M 2.921875 -29.265625 L 15.515625 -29.265625 C 20.109375 -29.265625 23.847656 -27.910156 26.734375 -25.203125 C 29.617188 -22.503906 31.0625 -18.984375 31.0625 -14.640625 C 31.0625 -10.316406 29.597656 -6.796875 26.671875 -4.078125 C 23.742188 -1.359375 19.925781 0 15.21875 0 L 2.921875 0 Z M 10.375 -23.328125 L 10.375 -5.9375 L 15.671875 -5.9375 C 17.960938 -5.9375 19.835938 -6.738281 21.296875 -8.34375 C 22.765625 -9.945312 23.5 -12.03125 23.5 -14.59375 C 23.5 -17.15625 22.734375 -19.25 21.203125 -20.875 C 19.671875 -22.507812 17.71875 -23.328125 15.34375 -23.328125 Z M 10.375 -23.328125 "/></g></g></g><g fill="#0c1a62" fill-opacity="1"><g transform="translate(230.06078, 190.725631)"><g><path d="M 14.171875 -29.609375 C 18.546875 -29.609375 22.394531 -28.519531 25.71875 -26.34375 L 22.90625 -20.53125 C 21.375 -21.425781 19.726562 -22.15625 17.96875 -22.71875 C 16.21875 -23.289062 14.742188 -23.578125 13.546875 -23.578125 C 11.398438 -23.578125 10.328125 -22.867188 10.328125 -21.453125 C 10.328125 -20.523438 10.851562 -19.78125 11.90625 -19.21875 C 12.96875 -18.664062 14.257812 -18.1875 15.78125 -17.78125 C 17.300781 -17.382812 18.820312 -16.898438 20.34375 -16.328125 C 21.863281 -15.753906 23.148438 -14.828125 24.203125 -13.546875 C 25.265625 -12.265625 25.796875 -10.648438 25.796875 -8.703125 C 25.796875 -5.878906 24.691406 -3.679688 22.484375 -2.109375 C 20.285156 -0.535156 17.488281 0.25 14.09375 0.25 C 11.664062 0.25 9.265625 -0.164062 6.890625 -1 C 4.523438 -1.84375 2.460938 -2.988281 0.703125 -4.4375 L 3.59375 -10.15625 C 5.070312 -8.875 6.8125 -7.820312 8.8125 -7 C 10.820312 -6.175781 12.609375 -5.765625 14.171875 -5.765625 C 15.367188 -5.765625 16.300781 -5.976562 16.96875 -6.40625 C 17.644531 -6.84375 17.984375 -7.484375 17.984375 -8.328125 C 17.984375 -9.128906 17.597656 -9.800781 16.828125 -10.34375 C 16.054688 -10.882812 15.097656 -11.285156 13.953125 -11.546875 C 12.816406 -11.816406 11.578125 -12.175781 10.234375 -12.625 C 8.898438 -13.070312 7.660156 -13.5625 6.515625 -14.09375 C 5.378906 -14.625 4.425781 -15.46875 3.65625 -16.625 C 2.894531 -17.78125 2.515625 -19.164062 2.515625 -20.78125 C 2.515625 -23.457031 3.578125 -25.597656 5.703125 -27.203125 C 7.835938 -28.804688 10.660156 -29.609375 14.171875 -29.609375 Z M 14.171875 -29.609375 "/></g></g></g><g fill="#0c1a62" fill-opacity="1"><g transform="translate(259.075873, 190.725631)"><g><path d="M 16.640625 -29.515625 C 18.816406 -29.515625 20.957031 -29.066406 23.0625 -28.171875 C 25.164062 -27.285156 26.957031 -26.085938 28.4375 -24.578125 L 24.125 -19.484375 C 23.175781 -20.648438 22.039062 -21.578125 20.71875 -22.265625 C 19.394531 -22.953125 18.078125 -23.296875 16.765625 -23.296875 C 14.453125 -23.296875 12.515625 -22.476562 10.953125 -20.84375 C 9.390625 -19.207031 8.609375 -17.191406 8.609375 -14.796875 C 8.609375 -12.347656 9.390625 -10.300781 10.953125 -8.65625 C 12.515625 -7.007812 14.453125 -6.1875 16.765625 -6.1875 C 17.992188 -6.1875 19.269531 -6.492188 20.59375 -7.109375 C 21.914062 -7.722656 23.09375 -8.554688 24.125 -9.609375 L 28.46875 -5.015625 C 26.882812 -3.398438 25.007812 -2.101562 22.84375 -1.125 C 20.6875 -0.15625 18.535156 0.328125 16.390625 0.328125 C 11.984375 0.328125 8.316406 -1.101562 5.390625 -3.96875 C 2.460938 -6.84375 1 -10.425781 1 -14.71875 C 1 -18.925781 2.488281 -22.441406 5.46875 -25.265625 C 8.457031 -28.097656 12.179688 -29.515625 16.640625 -29.515625 Z M 16.640625 -29.515625 "/></g></g></g><g fill="#0c1a62" fill-opacity="1"><g transform="translate(290.097761, 190.725631)"><g><path d="M 22.375 -5.390625 L 9.578125 -5.390625 L 7.4375 0 L -0.203125 0 L 12.421875 -29.265625 L 20.0625 -29.265625 L 32.40625 0 L 24.453125 0 Z M 20.203125 -11.03125 L 16.015625 -21.875 L 11.75 -11.03125 Z M 20.203125 -11.03125 "/></g></g></g><g fill="#0c1a62" fill-opacity="1"><g transform="translate(324.380684, 190.725631)"><g><path d="M 29.9375 0 L 23.375 0 L 9.90625 -18.015625 L 9.90625 0 L 2.921875 0 L 2.921875 -29.265625 L 9.484375 -29.265625 L 23 -11.203125 L 23 -29.265625 L 29.9375 -29.265625 Z M 29.9375 0 "/></g></g></g><g fill="#0c1a62" fill-opacity="1"><g transform="translate(100.081814, 206.982347)"><g><path d="M 0.71875 -5.453125 L 2.953125 -5.453125 C 3.765625 -5.453125 4.4375 -5.191406 4.96875 -4.671875 C 5.5 -4.160156 5.765625 -3.507812 5.765625 -2.71875 C 5.765625 -1.9375 5.492188 -1.285156 4.953125 -0.765625 C 4.421875 -0.253906 3.742188 0 2.921875 0 L 0.71875 0 Z M 1.640625 -4.625 L 1.640625 -0.828125 L 2.96875 -0.828125 C 3.507812 -0.828125 3.957031 -1.003906 4.3125 -1.359375 C 4.664062 -1.710938 4.84375 -2.164062 4.84375 -2.71875 C 4.84375 -3.269531 4.660156 -3.722656 4.296875 -4.078125 C 3.929688 -4.441406 3.476562 -4.625 2.9375 -4.625 Z M 1.640625 -4.625 "/></g></g></g><g fill="#0c1a62" fill-opacity="1"><g transform="translate(108.735975, 206.982347)"><g><path d="M 1.640625 0 L 0.71875 0 L 0.71875 -5.453125 L 1.640625 -5.453125 Z M 1.640625 0 "/></g></g></g><g fill="#0c1a62" fill-opacity="1"><g transform="translate(113.712303, 206.982347)"><g><path d="M 4.4375 -2.671875 L 5.25 -2.671875 L 5.25 -0.671875 C 4.96875 -0.453125 4.632812 -0.28125 4.25 -0.15625 C 3.875 -0.03125 3.5 0.03125 3.125 0.03125 C 2.320312 0.03125 1.644531 -0.234375 1.09375 -0.765625 C 0.539062 -1.296875 0.265625 -1.945312 0.265625 -2.71875 C 0.265625 -3.5 0.546875 -4.148438 1.109375 -4.671875 C 1.671875 -5.203125 2.363281 -5.46875 3.1875 -5.46875 C 3.570312 -5.46875 3.945312 -5.398438 4.3125 -5.265625 C 4.6875 -5.128906 5.007812 -4.941406 5.28125 -4.703125 L 4.75 -4.03125 C 4.300781 -4.445312 3.78125 -4.65625 3.1875 -4.65625 C 2.625 -4.65625 2.148438 -4.46875 1.765625 -4.09375 C 1.390625 -3.71875 1.203125 -3.257812 1.203125 -2.71875 C 1.203125 -2.175781 1.394531 -1.71875 1.78125 -1.34375 C 2.164062 -0.96875 2.632812 -0.78125 3.1875 -0.78125 C 3.613281 -0.78125 4.03125 -0.90625 4.4375 -1.15625 Z M 4.4375 -2.671875 "/></g></g></g><g fill="#0c1a62" fill-opacity="1"><g transform="translate(122.164303, 206.982347)"><g><path d="M 1.640625 0 L 0.71875 0 L 0.71875 -5.453125 L 1.640625 -5.453125 Z M 1.640625 0 "/></g></g></g><g fill="#0c1a62" fill-opacity="1"><g transform="translate(127.140631, 206.982347)"><g><path d="M 4.4375 -4.625 L 2.703125 -4.625 L 2.703125 0 L 1.796875 0 L 1.796875 -4.625 L 0.0625 -4.625 L 0.0625 -5.453125 L 4.4375 -5.453125 Z M 4.4375 -4.625 "/></g></g></g><g fill="#0c1a62" fill-opacity="1"><g transform="translate(134.270782, 206.982347)"><g><path d="M 4.234375 -1.234375 L 1.484375 -1.234375 L 0.96875 0 L 0 0 L 2.40625 -5.453125 L 3.359375 -5.453125 L 5.734375 0 L 4.75 0 Z M 3.890625 -2.046875 L 2.859375 -4.46875 L 1.828125 -2.046875 Z M 3.890625 -2.046875 "/></g></g></g><g fill="#0c1a62" fill-opacity="1"><g transform="translate(142.637249, 206.982347)"><g><path d="M 1.640625 -0.828125 L 3.984375 -0.828125 L 3.984375 0 L 0.71875 0 L 0.71875 -5.453125 L 1.640625 -5.453125 Z M 1.640625 -0.828125 "/></g></g></g><g fill="#0c1a62" fill-opacity="1"><g transform="translate(149.417508, 206.982347)"><g><path d="M 1.640625 0 L 0.71875 0 L 0.71875 -5.453125 L 1.640625 -5.453125 Z M 1.640625 0 "/></g></g></g><g fill="#0c1a62" fill-opacity="1"><g transform="translate(154.393836, 206.982347)"><g><path d="M 2.5 -5.484375 C 3.207031 -5.484375 3.84375 -5.296875 4.40625 -4.921875 L 4.03125 -4.109375 C 3.476562 -4.453125 2.945312 -4.625 2.4375 -4.625 C 2.15625 -4.625 1.9375 -4.570312 1.78125 -4.46875 C 1.625 -4.375 1.546875 -4.234375 1.546875 -4.046875 C 1.546875 -3.867188 1.617188 -3.71875 1.765625 -3.59375 C 1.910156 -3.46875 2.09375 -3.375 2.3125 -3.3125 C 2.53125 -3.25 2.765625 -3.171875 3.015625 -3.078125 C 3.273438 -2.992188 3.507812 -2.898438 3.71875 -2.796875 C 3.9375 -2.691406 4.117188 -2.53125 4.265625 -2.3125 C 4.410156 -2.101562 4.484375 -1.847656 4.484375 -1.546875 C 4.484375 -1.066406 4.289062 -0.679688 3.90625 -0.390625 C 3.53125 -0.109375 3.035156 0.03125 2.421875 0.03125 C 2.015625 0.03125 1.613281 -0.046875 1.21875 -0.203125 C 0.832031 -0.359375 0.492188 -0.566406 0.203125 -0.828125 L 0.59375 -1.625 C 0.875 -1.375 1.175781 -1.175781 1.5 -1.03125 C 1.832031 -0.894531 2.144531 -0.828125 2.4375 -0.828125 C 2.757812 -0.828125 3.007812 -0.882812 3.1875 -1 C 3.375 -1.125 3.46875 -1.289062 3.46875 -1.5 C 3.46875 -1.6875 3.394531 -1.84375 3.25 -1.96875 C 3.101562 -2.09375 2.921875 -2.179688 2.703125 -2.234375 C 2.484375 -2.296875 2.242188 -2.367188 1.984375 -2.453125 C 1.734375 -2.546875 1.5 -2.640625 1.28125 -2.734375 C 1.0625 -2.828125 0.878906 -2.976562 0.734375 -3.1875 C 0.585938 -3.40625 0.515625 -3.664062 0.515625 -3.96875 C 0.515625 -4.425781 0.695312 -4.789062 1.0625 -5.0625 C 1.425781 -5.34375 1.90625 -5.484375 2.5 -5.484375 Z M 2.5 -5.484375 "/></g></g></g><g fill="#0c1a62" fill-opacity="1"><g transform="translate(161.858338, 206.982347)"><g><path d="M 4.609375 -4.625 L 1.640625 -4.625 L 1.640625 -3.15625 L 4.296875 -3.15625 L 4.296875 -2.328125 L 1.640625 -2.328125 L 1.640625 -0.828125 L 4.703125 -0.828125 L 4.703125 0 L 0.71875 0 L 0.71875 -5.453125 L 4.609375 -5.453125 Z M 4.609375 -4.625 "/></g></g></g><g fill="#0c1a62" fill-opacity="1"><g transform="translate(169.587209, 206.982347)"><g/></g></g><g fill="#0c1a62" fill-opacity="1"><g transform="translate(174.221416, 206.982347)"><g><path d="M 0.71875 -5.453125 L 2.953125 -5.453125 C 3.765625 -5.453125 4.4375 -5.191406 4.96875 -4.671875 C 5.5 -4.160156 5.765625 -3.507812 5.765625 -2.71875 C 5.765625 -1.9375 5.492188 -1.285156 4.953125 -0.765625 C 4.421875 -0.253906 3.742188 0 2.921875 0 L 0.71875 0 Z M 1.640625 -4.625 L 1.640625 -0.828125 L 2.96875 -0.828125 C 3.507812 -0.828125 3.957031 -1.003906 4.3125 -1.359375 C 4.664062 -1.710938 4.84375 -2.164062 4.84375 -2.71875 C 4.84375 -3.269531 4.660156 -3.722656 4.296875 -4.078125 C 3.929688 -4.441406 3.476562 -4.625 2.9375 -4.625 Z M 1.640625 -4.625 "/></g></g></g><g fill="#0c1a62" fill-opacity="1"><g transform="translate(182.875576, 206.982347)"><g><path d="M 4.234375 -1.234375 L 1.484375 -1.234375 L 0.96875 0 L 0 0 L 2.40625 -5.453125 L 3.359375 -5.453125 L 5.734375 0 L 4.75 0 Z M 3.890625 -2.046875 L 2.859375 -4.46875 L 1.828125 -2.046875 Z M 3.890625 -2.046875 "/></g></g></g><g fill="#0c1a62" fill-opacity="1"><g transform="translate(191.242043, 206.982347)"><g><path d="M 4.4375 -4.625 L 2.703125 -4.625 L 2.703125 0 L 1.796875 0 L 1.796875 -4.625 L 0.0625 -4.625 L 0.0625 -5.453125 L 4.4375 -5.453125 Z M 4.4375 -4.625 "/></g></g></g><g fill="#0c1a62" fill-opacity="1"><g transform="translate(198.372195, 206.982347)"><g><path d="M 4.234375 -1.234375 L 1.484375 -1.234375 L 0.96875 0 L 0 0 L 2.40625 -5.453125 L 3.359375 -5.453125 L 5.734375 0 L 4.75 0 Z M 3.890625 -2.046875 L 2.859375 -4.46875 L 1.828125 -2.046875 Z M 3.890625 -2.046875 "/></g></g></g><g fill="#0c1a62" fill-opacity="1"><g transform="translate(206.738662, 206.982347)"><g/></g></g><g fill="#0c1a62" fill-opacity="1"><g transform="translate(211.372869, 206.982347)"><g><path d="M 1.09375 -4.671875 C 1.65625 -5.203125 2.34375 -5.46875 3.15625 -5.46875 C 3.96875 -5.46875 4.648438 -5.203125 5.203125 -4.671875 C 5.753906 -4.148438 6.03125 -3.5 6.03125 -2.71875 C 6.03125 -1.945312 5.753906 -1.296875 5.203125 -0.765625 C 4.648438 -0.234375 3.96875 0.03125 3.15625 0.03125 C 2.34375 0.03125 1.65625 -0.234375 1.09375 -0.765625 C 0.539062 -1.296875 0.265625 -1.945312 0.265625 -2.71875 C 0.265625 -3.5 0.539062 -4.148438 1.09375 -4.671875 Z M 3.15625 -4.640625 C 2.613281 -4.640625 2.148438 -4.453125 1.765625 -4.078125 C 1.390625 -3.710938 1.203125 -3.257812 1.203125 -2.71875 C 1.203125 -2.1875 1.394531 -1.726562 1.78125 -1.34375 C 2.164062 -0.96875 2.625 -0.78125 3.15625 -0.78125 C 3.6875 -0.78125 4.140625 -0.96875 4.515625 -1.34375 C 4.898438 -1.726562 5.09375 -2.1875 5.09375 -2.71875 C 5.09375 -3.257812 4.898438 -3.710938 4.515625 -4.078125 C 4.140625 -4.453125 3.6875 -4.640625 3.15625 -4.640625 Z M 3.15625 -4.640625 "/></g></g></g><g fill="#0c1a62" fill-opacity="1"><g transform="translate(220.29917, 206.982347)"><g><path d="M 4.359375 -4.625 L 1.640625 -4.625 L 1.640625 -3.046875 L 4.109375 -3.046875 L 4.109375 -2.234375 L 1.640625 -2.234375 L 1.640625 0 L 0.71875 0 L 0.71875 -5.453125 L 4.375 -5.453125 Z M 4.359375 -4.625 "/></g></g></g><g fill="#0c1a62" fill-opacity="1"><g transform="translate(227.398227, 206.982347)"><g/></g></g><g fill="#0c1a62" fill-opacity="1"><g transform="translate(232.032433, 206.982347)"><g><path d="M 0.71875 -5.453125 L 3.078125 -5.453125 C 3.640625 -5.453125 4.082031 -5.328125 4.40625 -5.078125 C 4.738281 -4.835938 4.90625 -4.503906 4.90625 -4.078125 C 4.90625 -3.773438 4.816406 -3.515625 4.640625 -3.296875 C 4.472656 -3.085938 4.242188 -2.945312 3.953125 -2.875 C 4.316406 -2.8125 4.601562 -2.65625 4.8125 -2.40625 C 5.019531 -2.164062 5.125 -1.863281 5.125 -1.5 C 5.125 -1.03125 4.945312 -0.660156 4.59375 -0.390625 C 4.238281 -0.128906 3.753906 0 3.140625 0 L 0.71875 0 Z M 1.640625 -4.625 L 1.640625 -3.1875 L 3.03125 -3.1875 C 3.320312 -3.1875 3.550781 -3.25 3.71875 -3.375 C 3.882812 -3.507812 3.96875 -3.691406 3.96875 -3.921875 C 3.96875 -4.148438 3.882812 -4.320312 3.71875 -4.4375 C 3.5625 -4.5625 3.332031 -4.625 3.03125 -4.625 Z M 1.640625 -2.375 L 1.640625 -0.8125 L 3.03125 -0.8125 C 3.394531 -0.8125 3.675781 -0.878906 3.875 -1.015625 C 4.070312 -1.160156 4.171875 -1.359375 4.171875 -1.609375 C 4.171875 -1.847656 4.070312 -2.035156 3.875 -2.171875 C 3.675781 -2.304688 3.394531 -2.375 3.03125 -2.375 Z M 1.640625 -2.375 "/></g></g></g><g fill="#0c1a62" fill-opacity="1"><g transform="translate(240.150083, 206.982347)"><g><path d="M 5.34375 -5.453125 L 5.34375 -2.25 C 5.34375 -1.539062 5.128906 -0.984375 4.703125 -0.578125 C 4.285156 -0.171875 3.707031 0.03125 2.96875 0.03125 C 2.238281 0.03125 1.660156 -0.171875 1.234375 -0.578125 C 0.816406 -0.984375 0.609375 -1.539062 0.609375 -2.25 L 0.609375 -5.453125 L 1.53125 -5.453125 L 1.53125 -2.25 C 1.53125 -1.800781 1.660156 -1.441406 1.921875 -1.171875 C 2.179688 -0.910156 2.535156 -0.78125 2.984375 -0.78125 C 3.429688 -0.78125 3.78125 -0.910156 4.03125 -1.171875 C 4.289062 -1.429688 4.421875 -1.789062 4.421875 -2.25 L 4.421875 -5.453125 Z M 5.34375 -5.453125 "/></g></g></g><g fill="#0c1a62" fill-opacity="1"><g transform="translate(248.718711, 206.982347)"><g><path d="M 1.640625 0 L 0.71875 0 L 0.71875 -5.453125 L 1.640625 -5.453125 Z M 1.640625 0 "/></g></g></g><g fill="#0c1a62" fill-opacity="1"><g transform="translate(253.695039, 206.982347)"><g><path d="M 1.640625 -0.828125 L 3.984375 -0.828125 L 3.984375 0 L 0.71875 0 L 0.71875 -5.453125 L 1.640625 -5.453125 Z M 1.640625 -0.828125 "/></g></g></g><g fill="#0c1a62" fill-opacity="1"><g transform="translate(260.475298, 206.982347)"><g><path d="M 4.4375 -4.625 L 2.703125 -4.625 L 2.703125 0 L 1.796875 0 L 1.796875 -4.625 L 0.0625 -4.625 L 0.0625 -5.453125 L 4.4375 -5.453125 Z M 4.4375 -4.625 "/></g></g></g><g fill="#0c1a62" fill-opacity="1"><g transform="translate(267.605459, 206.982347)"><g/></g></g><g fill="#0c1a62" fill-opacity="1"><g transform="translate(272.239675, 206.982347)"><g><path d="M 4.609375 -4.625 L 1.640625 -4.625 L 1.640625 -3.15625 L 4.296875 -3.15625 L 4.296875 -2.328125 L 1.640625 -2.328125 L 1.640625 -0.828125 L 4.703125 -0.828125 L 4.703125 0 L 0.71875 0 L 0.71875 -5.453125 L 4.609375 -5.453125 Z M 4.609375 -4.625 "/></g></g></g><g fill="#0c1a62" fill-opacity="1"><g transform="translate(279.968537, 206.982347)"><g><path d="M 5.4375 0 L 4.53125 0 L 1.640625 -3.90625 L 1.640625 0 L 0.71875 0 L 0.71875 -5.453125 L 1.625 -5.453125 L 4.53125 -1.53125 L 4.53125 -5.453125 L 5.4375 -5.453125 Z M 5.4375 0 "/></g></g></g><g fill="#0c1a62" fill-opacity="1"><g transform="translate(288.754877, 206.982347)"><g><path d="M 3.140625 0 L 2.1875 0 L 0.015625 -5.453125 L 1.015625 -5.453125 L 2.6875 -1.015625 L 4.390625 -5.453125 L 5.34375 -5.453125 Z M 3.140625 0 "/></g></g></g><g fill="#0c1a62" fill-opacity="1"><g transform="translate(296.748118, 206.982347)"><g><path d="M 1.640625 0 L 0.71875 0 L 0.71875 -5.453125 L 1.640625 -5.453125 Z M 1.640625 0 "/></g></g></g><g fill="#0c1a62" fill-opacity="1"><g transform="translate(301.724446, 206.982347)"><g><path d="M 4.171875 0 L 3.171875 -1.65625 C 3.117188 -1.644531 3.035156 -1.640625 2.921875 -1.640625 L 1.640625 -1.640625 L 1.640625 0 L 0.71875 0 L 0.71875 -5.453125 L 2.921875 -5.453125 C 3.617188 -5.453125 4.160156 -5.285156 4.546875 -4.953125 C 4.929688 -4.628906 5.125 -4.175781 5.125 -3.59375 C 5.125 -3.15625 5.023438 -2.785156 4.828125 -2.484375 C 4.628906 -2.179688 4.347656 -1.960938 3.984375 -1.828125 L 5.21875 0 Z M 1.640625 -2.46875 L 2.921875 -2.46875 C 3.804688 -2.46875 4.25 -2.832031 4.25 -3.5625 C 4.25 -4.269531 3.804688 -4.625 2.921875 -4.625 L 1.640625 -4.625 Z M 1.640625 -2.46875 "/></g></g></g><g fill="#0c1a62" fill-opacity="1"><g transform="translate(309.974276, 206.982347)"><g><path d="M 1.09375 -4.671875 C 1.65625 -5.203125 2.34375 -5.46875 3.15625 -5.46875 C 3.96875 -5.46875 4.648438 -5.203125 5.203125 -4.671875 C 5.753906 -4.148438 6.03125 -3.5 6.03125 -2.71875 C 6.03125 -1.945312 5.753906 -1.296875 5.203125 -0.765625 C 4.648438 -0.234375 3.96875 0.03125 3.15625 0.03125 C 2.34375 0.03125 1.65625 -0.234375 1.09375 -0.765625 C 0.539062 -1.296875 0.265625 -1.945312 0.265625 -2.71875 C 0.265625 -3.5 0.539062 -4.148438 1.09375 -4.671875 Z M 3.15625 -4.640625 C 2.613281 -4.640625 2.148438 -4.453125 1.765625 -4.078125 C 1.390625 -3.710938 1.203125 -3.257812 1.203125 -2.71875 C 1.203125 -2.1875 1.394531 -1.726562 1.78125 -1.34375 C 2.164062 -0.96875 2.625 -0.78125 3.15625 -0.78125 C 3.6875 -0.78125 4.140625 -0.96875 4.515625 -1.34375 C 4.898438 -1.726562 5.09375 -2.1875 5.09375 -2.71875 C 5.09375 -3.257812 4.898438 -3.710938 4.515625 -4.078125 C 4.140625 -4.453125 3.6875 -4.640625 3.15625 -4.640625 Z M 3.15625 -4.640625 "/></g></g></g><g fill="#0c1a62" fill-opacity="1"><g transform="translate(318.900578, 206.982347)"><g><path d="M 5.4375 0 L 4.53125 0 L 1.640625 -3.90625 L 1.640625 0 L 0.71875 0 L 0.71875 -5.453125 L 1.625 -5.453125 L 4.53125 -1.53125 L 4.53125 -5.453125 L 5.4375 -5.453125 Z M 5.4375 0 "/></g></g></g><g fill="#0c1a62" fill-opacity="1"><g transform="translate(327.686938, 206.982347)"><g><path d="M 6.46875 0 L 5.625 0 L 5.625 -4.0625 L 3.890625 -0.5625 L 3.296875 -0.5625 L 1.578125 -4.0625 L 1.578125 0 L 0.71875 0 L 0.71875 -5.453125 L 1.8125 -5.453125 L 3.609375 -1.828125 L 5.390625 -5.453125 L 6.46875 -5.453125 Z M 6.46875 0 "/></g></g></g><g fill="#0c1a62" fill-opacity="1"><g transform="translate(337.507423, 206.982347)"><g><path d="M 4.609375 -4.625 L 1.640625 -4.625 L 1.640625 -3.15625 L 4.296875 -3.15625 L 4.296875 -2.328125 L 1.640625 -2.328125 L 1.640625 -0.828125 L 4.703125 -0.828125 L 4.703125 0 L 0.71875 0 L 0.71875 -5.453125 L 4.609375 -5.453125 Z M 4.609375 -4.625 "/></g></g></g><g fill="#0c1a62" fill-opacity="1"><g transform="translate(345.236285, 206.982347)"><g><path d="M 5.4375 0 L 4.53125 0 L 1.640625 -3.90625 L 1.640625 0 L 0.71875 0 L 0.71875 -5.453125 L 1.625 -5.453125 L 4.53125 -1.53125 L 4.53125 -5.453125 L 5.4375 -5.453125 Z M 5.4375 0 "/></g></g></g><g fill="#0c1a62" fill-opacity="1"><g transform="translate(354.022625, 206.982347)"><g><path d="M 4.4375 -4.625 L 2.703125 -4.625 L 2.703125 0 L 1.796875 0 L 1.796875 -4.625 L 0.0625 -4.625 L 0.0625 -5.453125 L 4.4375 -5.453125 Z M 4.4375 -4.625 "/></g></g></g></svg>