<?xml version="1.0" encoding="UTF-8"?>
<svg version="1.1" xmlns="http://www.w3.org/2000/svg" width="334" height="305">
<path d="M0 0 C0.73533616 -0.00367669 1.47067232 -0.00735338 2.22829139 -0.01114148 C4.69931026 -0.02217942 7.17028707 -0.02602237 9.6413269 -0.02983093 C11.41039666 -0.03609559 13.17946511 -0.0427424 14.9485321 -0.04974365 C20.76522911 -0.07078935 26.5819264 -0.08114776 32.39865112 -0.09111023 C34.40158985 -0.09515785 36.40452844 -0.09927477 38.40746689 -0.10346031 C47.81916206 -0.12251454 57.23084937 -0.13674406 66.64256012 -0.14507228 C77.50210944 -0.15484048 88.3614547 -0.18114816 99.22093213 -0.22157317 C107.61681926 -0.25175311 116.01264797 -0.26654302 124.40858829 -0.26985329 C129.42181821 -0.272202 134.43483019 -0.2811389 139.44800186 -0.30631447 C144.16763674 -0.32963243 148.88691077 -0.33381343 153.60658836 -0.32355309 C155.33470931 -0.32305849 157.06284824 -0.32935638 158.79091454 -0.34310913 C168.96571242 -0.41952487 177.30506931 -0.24633866 185.57833862 6.33467102 C187.98748844 9.34610829 189.70854672 12.40152183 191.50021362 15.80342102 C193.23601129 18.86659338 195.3094473 21.57062442 197.49630737 24.32295227 C202.63945824 31.36650492 201.98094008 39.43046064 201.98947144 47.79292297 C201.99443634 48.95952454 201.99940125 50.1261261 202.0045166 51.32807922 C202.01910034 55.18054294 202.02593355 59.0329655 202.03146362 62.88545227 C202.0357628 64.88985375 202.04006253 66.89425523 202.04443812 68.89865655 C202.05623175 74.48190001 202.06378045 80.06513356 202.06723332 85.64838821 C202.07171199 92.84879517 202.08925836 100.04901212 202.11823392 107.24936134 C202.13990561 112.83004778 202.1499405 118.41068096 202.15127444 123.991409 C202.15231841 127.3177859 202.15960409 130.6439439 202.17609406 133.97028542 C202.19319544 137.68474768 202.19126406 141.39874954 202.18478394 145.11323547 C202.19399872 146.20289108 202.2032135 147.29254669 202.21270752 148.41522217 C202.16360888 157.42371195 200.67753671 164.53972198 194.81661987 171.54170227 C187.37053019 177.55416368 181.320035 177.52599805 172.03285027 176.96059036 C168.37165661 176.75610813 164.70654696 176.68231486 161.04122925 176.58467102 C156.40319932 176.45371284 151.77595393 176.28611503 147.14596558 175.97822571 C130.03843757 174.35956616 130.03843757 174.35956616 114.98168945 180.64454651 C110.10449023 186.87296907 107.01306066 193.64004582 104.12815857 201.00059509 C102.31778268 205.38311376 99.94232138 209.29047587 97.39083862 213.27217102 C96.68089914 214.43967836 95.9735067 215.60874197 95.26974487 216.77998352 C94.79408081 217.5611554 94.31841675 218.34232727 93.82833862 219.14717102 C89.68233711 217.63703802 88.32834989 215.18807073 86.14083862 211.45967102 C85.80125122 210.88877747 85.46166382 210.31788391 85.11178589 209.72969055 C84.38512272 208.50662033 83.66283658 207.28094084 82.94454956 206.05293274 C81.44618205 203.49469635 79.92285981 200.95179001 78.39743042 198.40962219 C77.67483981 197.20436911 76.95469764 195.99764244 76.23776245 194.78901672 C75.54769816 193.63036422 74.8417015 192.48104813 74.11988831 191.34190369 C72.82833862 189.14717102 72.82833862 189.14717102 71.57955933 186.40072632 C69.93549325 183.16350685 68.39498555 180.72780877 65.82833862 178.14717102 C60.98177759 176.60842343 56.23434124 176.81755509 51.20724487 176.99482727 C49.77911943 177.00307718 48.35095306 177.0058676 46.92280579 177.003479 C43.17437893 177.00912685 39.4298447 177.07681756 35.6824646 177.16145325 C29.69118528 177.2875149 23.69902543 177.32378419 17.70661736 177.35053825 C15.62524472 177.36943684 13.54619186 177.41784467 11.46543884 177.47067261 C2.50274141 177.58136766 -2.79368439 176.71064066 -9.85916138 170.95967102 C-17.17166138 162.06608994 -17.17166138 162.06608994 -17.17166138 157.14717102 C-18.16166138 156.81717102 -19.15166138 156.48717102 -20.17166138 156.14717102 C-25.72189237 149.58145016 -25.88002333 142.53379872 -25.78689575 134.30293274 C-25.79244476 133.04489838 -25.79799377 131.78686401 -25.80371094 130.4907074 C-25.81786704 127.06496332 -25.8009911 123.64003078 -25.77742577 120.21436453 C-25.75720513 116.61686722 -25.76320196 113.01939994 -25.76553345 109.42185974 C-25.76548001 103.38468667 -25.74580064 97.34782798 -25.71365356 91.31074524 C-25.67673303 84.34361147 -25.667984 77.3768886 -25.67495108 70.40966976 C-25.68126769 63.68789906 -25.67048256 56.96626833 -25.65098572 50.24452591 C-25.64283824 47.39221823 -25.64009724 44.53998236 -25.64167786 41.68766403 C-25.64272428 37.70249787 -25.6184872 33.71770018 -25.59158325 29.73262024 C-25.59451385 28.55633057 -25.59744446 27.38004089 -25.60046387 26.16810608 C-25.5127951 17.74513652 -24.3671571 11.34266674 -18.17166138 5.14717102 C-12.17846979 1.54397689 -6.98936733 -0.00186917 0 0 Z " fill="#F42E5C" transform="translate(86.17166137695313,10.852828979492188)"/>
<path d="M0 0 C1.2286528 -0.0127597 2.4573056 -0.02551941 3.72319031 -0.03866577 C5.05740195 -0.04172468 6.39161572 -0.04395177 7.72583008 -0.04541016 C9.10720454 -0.05184542 10.48857766 -0.05857431 11.86994934 -0.06558228 C14.76408034 -0.07753964 17.65809215 -0.08126496 20.55224609 -0.08007812 C24.23617377 -0.0798756 27.91932422 -0.10711438 31.60306835 -0.14162254 C34.45751861 -0.16401846 37.31178601 -0.16791174 40.16631508 -0.16685867 C42.17686826 -0.17032573 44.18736435 -0.19191637 46.19779968 -0.21395874 C55.8333678 -0.16631369 64.71448913 1.19715515 71.80786133 8.29052734 C73.85590269 11.56714439 74.08308275 14.20310317 74.14599609 18.03369141 C74.16843887 19.18879211 74.19088165 20.34389282 74.21400452 21.53399658 C74.23145973 23.40121368 74.23145973 23.40121368 74.24926758 25.30615234 C74.26992531 27.23355255 74.26992531 27.23355255 74.29100037 29.19989014 C74.31649158 31.92004963 74.33219615 34.64009811 74.34326172 37.36035156 C74.35978221 40.82874338 74.41817188 44.29508613 74.48640537 47.76279068 C74.54221985 51.0896775 74.54844216 54.41632863 74.56176758 57.74365234 C74.59162247 58.98036682 74.62147736 60.2170813 74.65223694 61.49127197 C74.61689284 68.45499076 73.88742862 72.62548516 68.99620056 77.72381592 C63.78226653 81.4566604 59.02030191 82.66600867 52.67919922 82.63110352 C51.66817139 82.63176064 51.66817139 82.63176064 50.63671875 82.63243103 C48.43434502 82.63036017 46.2327564 82.60711189 44.03051758 82.58349609 C42.49352942 82.57789403 40.95653586 82.57362682 39.41954041 82.57063293 C35.39335079 82.55923208 31.36749089 82.52980661 27.34143066 82.496521 C23.22546853 82.46571685 19.10945262 82.45210559 14.9934082 82.43701172 C6.93140871 82.40493172 -1.13032385 82.35379383 -9.19213867 82.29052734 C-9.19213867 81.63052734 -9.19213867 80.97052734 -9.19213867 80.29052734 C-10.09963867 80.06365234 -11.00713867 79.83677734 -11.94213867 79.60302734 C-16.27487896 77.85326684 -17.92159889 75.38877492 -20.287323 71.48187256 C-21.42388134 68.72927691 -21.43236023 66.58060047 -21.41918945 63.60400391 C-21.41903839 62.46312317 -21.41888733 61.32224243 -21.41873169 60.14678955 C-21.40840912 58.92062927 -21.39808655 57.69446899 -21.38745117 56.43115234 C-21.38462128 55.17163757 -21.38179138 53.9121228 -21.37887573 52.61444092 C-21.36957989 49.27378833 -21.3516245 45.93341065 -21.32946777 42.59283447 C-21.30897075 39.18089162 -21.29986579 35.76892033 -21.28979492 32.35693359 C-21.26773774 25.66805566 -21.23426234 18.97930737 -21.19213867 12.29052734 C-20.53213867 12.29052734 -19.87213867 12.29052734 -19.19213867 12.29052734 C-19.04518555 11.39720703 -19.04518555 11.39720703 -18.89526367 10.48583984 C-18.05137176 7.85102175 -17.054318 6.91955453 -14.94213867 5.16552734 C-14.35948242 4.66794922 -13.77682617 4.17037109 -13.17651367 3.65771484 C-8.90701596 0.71613177 -5.13149412 0.03629242 0 0 Z " fill="#FCEAA4" transform="translate(127.192138671875,48.70947265625)"/>
<path d="M0 0 C5.63482728 5.16525834 9.10875527 10.20357708 10 18 C10.14908457 21.88202393 10.15716979 25.76118888 10.16113281 29.64575195 C10.16858017 31.3956543 10.16858017 31.3956543 10.17617798 33.1809082 C10.19076172 37.03337192 10.19759493 40.88579448 10.203125 44.73828125 C10.20742418 46.74268273 10.21172391 48.74708421 10.2160995 50.75148553 C10.22789312 56.33472899 10.23544182 61.91796254 10.2388947 67.50121719 C10.24337336 74.70162415 10.26091974 81.9018411 10.2898953 89.10219032 C10.31156699 94.68287676 10.32160187 100.26350994 10.32293582 105.84423798 C10.32397979 109.17061488 10.33126546 112.49677288 10.34775543 115.8231144 C10.36485682 119.53757666 10.36292544 123.25157852 10.35644531 126.96606445 C10.3656601 128.05572006 10.37487488 129.14537567 10.3843689 130.26805115 C10.33527026 139.27654093 8.84919808 146.39255096 2.98828125 153.39453125 C-4.45780843 159.40699266 -10.50830363 159.37882702 -19.79548836 158.81341934 C-23.45668201 158.60893711 -27.12179166 158.53514384 -30.78710938 158.4375 C-35.42513931 158.30654182 -40.05238469 158.13894401 -44.68237305 157.83105469 C-61.78990105 156.21239514 -61.78990105 156.21239514 -76.84664917 162.49737549 C-81.72384839 168.72579805 -84.81527796 175.4928748 -87.70018005 182.85342407 C-89.51055594 187.23594274 -91.88601724 191.14330485 -94.4375 195.125 C-95.14743949 196.29250734 -95.85483193 197.46157095 -96.55859375 198.6328125 C-97.03425781 199.41398438 -97.50992188 200.19515625 -98 201 C-103.23248562 199.07714894 -105.16700725 194.69509726 -107.76171875 190.0390625 C-109 187 -109 187 -108.25 183.1875 C-107.13625 181.6096875 -107.13625 181.6096875 -106 180 C-105.59265625 179.40574219 -105.1853125 178.81148437 -104.765625 178.19921875 C-103.92626691 176.98940323 -103.06817544 175.7923591 -102.19140625 174.609375 C-98.62617842 169.79339511 -96.34998195 164.47533865 -94 159 C-93.34 159 -92.68 159 -92 159 C-91.896875 158.38125 -91.79375 157.7625 -91.6875 157.125 C-91 155 -91 155 -88 153 C-87.02750731 150.85346558 -87.02750731 150.85346558 -86.375 148.4375 C-85.07744875 144.07744875 -85.07744875 144.07744875 -84 143 C-81.84902911 142.88125381 -79.69417278 142.83255491 -77.54003906 142.81054688 C-76.52774231 142.79810692 -76.52774231 142.79810692 -75.49499512 142.78541565 C-74.02448153 142.76797704 -72.55393956 142.75282075 -71.08338165 142.73963928 C-68.75471169 142.71865164 -66.42618257 142.69162215 -64.09759521 142.66296387 C-59.14845092 142.60316477 -54.19924055 142.55111566 -49.25 142.5 C-43.5293325 142.44073357 -37.80873305 142.37829783 -32.08818817 142.30812073 C-29.79662751 142.28160868 -27.50505994 142.26075031 -25.21343994 142.2401123 C-23.80146974 142.2234989 -22.38950256 142.20662616 -20.97753906 142.18945312 C-19.74811584 142.17692505 -18.51869263 142.16439697 -17.25201416 142.15148926 C-14.38051379 142.01772555 -11.79108098 141.66015276 -9 141 C-8.9175 140.46375 -8.835 139.9275 -8.75 139.375 C-7.72418729 136.12659309 -6.03436106 133.71248141 -4 131 C-3.34 131 -2.68 131 -2 131 C-1.99576806 130.34308764 -1.99153612 129.68617529 -1.98717594 129.0093565 C-1.88393417 113.03554714 -1.77530615 97.0617849 -1.66066074 81.0880537 C-1.60534973 73.36332401 -1.5518712 65.63858969 -1.50268555 57.91381836 C-1.45981773 51.18201155 -1.41353316 44.45023845 -1.36312145 37.71848375 C-1.33654145 34.1530894 -1.31168889 30.58770165 -1.29092598 27.0222683 C-1.2677008 23.04499224 -1.23684843 19.06779554 -1.20532227 15.09057617 C-1.1995668 13.90446747 -1.19381134 12.71835876 -1.18788147 11.49630737 C-1.17809265 10.41517166 -1.16830383 9.33403595 -1.15821838 8.22013855 C-1.15176583 7.27898791 -1.14531328 6.33783728 -1.1386652 5.36816692 C-1 3 -1 3 0 0 Z " fill="#6EC8D0" transform="translate(278,29)"/>
<path d="M0 0 C1.16273437 -0.02578125 2.32546875 -0.0515625 3.5234375 -0.078125 C6.625 0.25 6.625 0.25 8.33984375 1.35546875 C10.16449016 4.04529704 11.4730193 6.85241302 12.8125 9.8125 C13.60720703 11.54693359 13.60720703 11.54693359 14.41796875 13.31640625 C15.625 16.25 15.625 16.25 15.625 18.25 C18.94790246 15.56382136 20.20111363 11.97775757 21.75 8.125 C24.52027027 1.35472973 24.52027027 1.35472973 25.625 0.25 C27.95660055 0.15090698 30.29129942 0.12029496 32.625 0.125 C33.90375 0.12242187 35.1825 0.11984375 36.5 0.1171875 C39.625 0.25 39.625 0.25 40.625 1.25 C40.72595564 3.90456193 40.76470998 6.53255176 40.7578125 9.1875 C40.75876923 9.982771 40.75972595 10.77804199 40.76071167 11.59741211 C40.76139343 13.2820646 40.75953943 14.96671971 40.75537109 16.65136719 C40.75002275 19.23899197 40.75531619 21.82644316 40.76171875 24.4140625 C40.76105797 26.04687539 40.7597768 27.67968816 40.7578125 29.3125 C40.75983673 30.09165771 40.76186096 30.87081543 40.76394653 31.67358398 C40.73995105 37.13504895 40.73995105 37.13504895 39.625 38.25 C37.50115672 38.3231351 35.37499728 38.33360924 33.25 38.3125 C32.08726563 38.30347656 30.92453125 38.29445313 29.7265625 38.28515625 C28.70304687 38.27355469 27.67953125 38.26195312 26.625 38.25 C25.635 38.25 24.645 38.25 23.625 38.25 C17.95833333 38.25 12.29166667 38.25 6.625 38.25 C5.60148437 38.26160156 4.57796875 38.27320313 3.5234375 38.28515625 C2.36070313 38.29417969 1.19796875 38.30320312 0 38.3125 C-1.75183594 38.32990234 -1.75183594 38.32990234 -3.5390625 38.34765625 C-6.375 38.25 -6.375 38.25 -7.375 37.25 C-7.47595564 34.59543807 -7.51470998 31.96744824 -7.5078125 29.3125 C-7.50876923 28.517229 -7.50972595 27.72195801 -7.51071167 26.90258789 C-7.51139343 25.2179354 -7.50953943 23.53328029 -7.50537109 21.84863281 C-7.50002275 19.26100803 -7.50531619 16.67355684 -7.51171875 14.0859375 C-7.51105797 12.45312461 -7.5097768 10.82031184 -7.5078125 9.1875 C-7.50983673 8.40834229 -7.51186096 7.62918457 -7.51394653 6.82641602 C-7.48353932 -0.09438182 -6.78651349 0.0898876 0 0 Z " fill="#FCEBA6" transform="translate(49.375,255.75)"/>
<path d="M0 0 C1.85473633 1.37890625 1.85473633 1.37890625 2.45751953 3.56640625 C2.50223389 4.49453125 2.54694824 5.42265625 2.59301758 6.37890625 C2.67543701 7.99925781 2.67543701 7.99925781 2.75952148 9.65234375 C2.92438385 16.10480312 3.04070643 22.55107604 3.04003906 29.00585938 C3.04223288 31.37518099 3.06048389 33.74404096 3.0793457 36.11328125 C3.11006885 44.73466825 2.68686423 52.90855855 0.85473633 61.37890625 C-2.52458096 62.49563466 -3.05959135 62.41447383 -6.59838867 60.9453125 C-7.87033677 60.28946426 -9.1358564 59.62102542 -10.39526367 58.94140625 C-11.04495117 58.60302734 -11.69463867 58.26464844 -12.36401367 57.91601562 C-13.96340861 57.08103738 -15.55512227 56.23137511 -17.14526367 55.37890625 C-17.14526367 54.71890625 -17.14526367 54.05890625 -17.14526367 53.37890625 C-18.13526367 53.37890625 -19.12526367 53.37890625 -20.14526367 53.37890625 C-20.14526367 52.71890625 -20.14526367 52.05890625 -20.14526367 51.37890625 C-22.12526367 51.37890625 -24.10526367 51.37890625 -26.14526367 51.37890625 C-26.29364455 45.75565148 -26.40249398 40.13353679 -26.47485352 34.50878906 C-26.50501721 32.59582674 -26.54595528 30.68300262 -26.59790039 28.77050781 C-26.6707375 26.01983577 -26.70472247 23.27099197 -26.73120117 20.51953125 C-26.76216888 19.66522522 -26.7931366 18.81091919 -26.82504272 17.9307251 C-26.82636346 15.59771229 -26.7659871 13.62859394 -26.14526367 11.37890625 C-23.28027344 8.89379883 -23.28027344 8.89379883 -20.14526367 7.37890625 C-19.23905273 6.92386719 -18.3328418 6.46882813 -17.39916992 6 C-15.54450114 5.18437643 -13.6889803 4.37068853 -11.83276367 3.55859375 C-10.21328248 2.84771683 -8.60450068 2.11051285 -7.02026367 1.32421875 C-2.69787193 -0.78108412 -2.69787193 -0.78108412 0 0 Z " fill="#FCE8A4" transform="translate(233.145263671875,60.62109375)"/>
<path d="M0 0 C2.97 0.495 2.97 0.495 6 1 C6 1.66 6 2.32 6 3 C6.85920044 2.97335266 7.71840088 2.94670532 8.6036377 2.91925049 C16.72394188 2.67822464 24.84303623 2.49583086 32.9661026 2.37825394 C37.14204652 2.31576741 41.31502256 2.23113011 45.48925781 2.09472656 C49.52254531 1.96376258 53.55299134 1.89248251 57.58824158 1.86147308 C59.12276468 1.83939663 60.65714171 1.79627542 62.19044495 1.73123932 C66.98623033 1.53602291 71.35975055 1.57630585 76 3 C80.38190358 7.0681943 83.79221309 11.79109513 84.18713379 17.88995361 C84.09450256 18.93442657 84.09450256 18.93442657 84 20 C75.53253681 19.96184688 67.0655998 19.90234691 58.59850311 19.81609726 C54.66623848 19.77670143 50.73419513 19.74447465 46.80175781 19.72900391 C43.00188845 19.71378471 39.20262775 19.67924763 35.4030304 19.63169098 C33.95833141 19.61693103 32.5135455 19.60896209 31.06877136 19.60811615 C21.56283586 19.59695935 14.98791045 18.94392919 7.3125 12.875 C4.13511562 8.92473834 2.09696009 4.59546573 0 0 Z " fill="#68C7CD" transform="translate(69,169)"/>
<path d="M0 0 C3.00390625 -0.328125 3.00390625 -0.328125 6.5625 -0.25 C8.32787109 -0.22679687 8.32787109 -0.22679687 10.12890625 -0.203125 C13 0 13 0 14 1 C14.12108515 2.67157492 14.17960329 4.34777569 14.2109375 6.0234375 C14.23929688 7.044375 14.26765625 8.0653125 14.296875 9.1171875 C14.34876692 11.28108067 14.39309465 13.44516905 14.4296875 15.609375 C14.460625 16.63289063 14.4915625 17.65640625 14.5234375 18.7109375 C14.54325684 19.65243652 14.56307617 20.59393555 14.58349609 21.56396484 C14.82672919 24.02935748 14.82672919 24.02935748 16.27978516 25.83056641 C18.20465165 27.37480486 18.20465165 27.37480486 22 27 C22.89472051 23.94685432 23.10604638 21.26179952 23.0625 18.0859375 C23.05476563 17.16039062 23.04703125 16.23484375 23.0390625 15.28125 C23.02617188 14.3221875 23.01328125 13.363125 23 12.375 C22.97454936 10.46620181 22.95349638 8.55733833 22.9375 6.6484375 C22.92589844 5.80458496 22.91429688 4.96073242 22.90234375 4.09130859 C23 2 23 2 24 0 C26.31243792 -0.02685412 28.6249627 -0.04632841 30.9375 -0.0625 C32.22527344 -0.07410156 33.51304687 -0.08570313 34.83984375 -0.09765625 C38 0 38 0 39 1 C39.28261384 4.67954657 39.2319273 8.37341089 39.25 12.0625 C39.270625 13.08794922 39.29125 14.11339844 39.3125 15.16992188 C39.346028 21.72045434 39.24688842 28.33562084 34.65380859 33.51928711 C28.63774531 38.85419599 22.99828228 39.45302321 15.234375 39.3125 C9.09946861 38.71975542 5.4749965 36.77755989 1.5625 32.0625 C-1.44517509 26.16745682 -1.35554921 19.87238338 -1.6875 13.375 C-1.74744141 12.42109375 -1.80738281 11.4671875 -1.86914062 10.484375 C-1.91619141 9.56914062 -1.96324219 8.65390625 -2.01171875 7.7109375 C-2.05772217 6.87868652 -2.10372559 6.04643555 -2.15112305 5.18896484 C-2 3 -2 3 0 0 Z " fill="#F7CE9D" transform="translate(101,256)"/>
<path d="M0 0 C2.00173125 1.72115385 3.65490531 3.5225929 5.32421875 5.56640625 C6.89831924 7.24948006 6.89831924 7.24948006 9.08984375 6.87109375 C11.26394285 6.06381435 11.26394285 6.06381435 12.875 3.5 C15 1 15 1 18 0.125 C22.17379472 -0.04890811 23.95974636 0.21278103 27.3125 2.75 C29 5 29 5 28.859375 7.37109375 C27.8112356 10.57744746 26.38673283 12.01877402 23.9375 14.3125 C22.83728516 15.35857422 22.83728516 15.35857422 21.71484375 16.42578125 C21.14894531 16.94527344 20.58304688 17.46476562 20 18 C21.80534637 22.10555926 24.53822339 24.82078231 27.63671875 28 C29 30 29 30 28.80859375 32.11328125 C27.63693712 34.84714672 26.37198919 36.18979772 24 38 C20.75 39.25 20.75 39.25 17 39 C13.96151089 36.6426433 11.47309064 33.9355907 9 31 C6.16154282 32.28477535 4.84098008 33.17621126 2.6875 35.5625 C0 38 0 38 -3.4375 39.1875 C-7.34409222 38.98188988 -7.81184936 38.6757655 -10.4375 36.0625 C-11.283125 35.051875 -12.12875 34.04125 -13 33 C-11.65515286 28.95838045 -9.9494838 26.61321846 -6.875 23.6875 C-6.15054688 22.99011719 -5.42609375 22.29273438 -4.6796875 21.57421875 C-3.84824219 20.79498047 -3.84824219 20.79498047 -3 20 C-4.47721422 16.54798361 -6.43794001 14.35038064 -9.125 11.75 C-9.84945312 11.04359375 -10.57390625 10.3371875 -11.3203125 9.609375 C-11.87460938 9.07828125 -12.42890625 8.5471875 -13 8 C-10.46766316 1.24341568 -7.54621159 -1.27901891 0 0 Z " fill="#FCEBA6" transform="translate(161,256)"/>
<path d="M0 0 C2.94921875 -0.37231445 2.94921875 -0.37231445 6.6875 -0.36328125 C7.34580811 -0.36377975 8.00411621 -0.36427826 8.68237305 -0.36479187 C10.07441221 -0.36245104 11.46645557 -0.3527218 12.85839844 -0.33618164 C14.9919205 -0.31258934 17.12419319 -0.3156196 19.2578125 -0.32226562 C29.72090689 -0.27909311 29.72090689 -0.27909311 32 2 C32.34490322 6.05261287 32.30163882 7.54754176 30 11 C27.04935852 11.2208564 24.31631769 11.28060989 21.375 11.1875 C20.57320312 11.17396484 19.77140625 11.16042969 18.9453125 11.14648438 C16.96325622 11.11109051 14.98154449 11.05728234 13 11 C13 12.65 13 14.3 13 16 C13.99902344 15.98839844 14.99804688 15.97679687 16.02734375 15.96484375 C17.31769531 15.95582031 18.60804688 15.94679688 19.9375 15.9375 C21.22527344 15.92589844 22.51304687 15.91429687 23.83984375 15.90234375 C27 16 27 16 28 17 C28.1328125 18.8125 28.1328125 18.8125 28.125 21 C28.12886719 22.0828125 28.12886719 22.0828125 28.1328125 23.1875 C28 25 28 25 27 26 C24.81707226 26.23481693 22.62796826 26.41363323 20.4375 26.5625 C18.64119141 26.68818359 18.64119141 26.68818359 16.80859375 26.81640625 C15.88175781 26.87699219 14.95492187 26.93757813 14 27 C14.01160156 27.71027344 14.02320313 28.42054688 14.03515625 29.15234375 C14.04417969 30.07144531 14.05320313 30.99054688 14.0625 31.9375 C14.07410156 32.85402344 14.08570313 33.77054687 14.09765625 34.71484375 C14 37 14 37 13 38 C10.64686445 38.07271741 8.29166332 38.08370868 5.9375 38.0625 C4.64714844 38.05347656 3.35679687 38.04445313 2.02734375 38.03515625 C1.02832031 38.02355469 0.02929688 38.01195312 -1 38 C-2.49107263 35.01785474 -2.16278536 31.96170199 -2.16796875 28.69140625 C-2.17296135 27.6076194 -2.17296135 27.6076194 -2.17805481 26.50193787 C-2.18311988 24.9728967 -2.18546326 23.44384447 -2.18530273 21.91479492 C-2.18748816 19.5751728 -2.2056448 17.23602297 -2.22460938 14.89648438 C-2.22754359 13.41145995 -2.2295282 11.92643328 -2.23046875 10.44140625 C-2.23765427 9.7413295 -2.24483978 9.04125275 -2.25224304 8.31996155 C-2.23497262 4.64876732 -2.0949823 3.14247344 0 0 Z " fill="#FDE9A7" transform="translate(227,256)"/>
<path d="M0 0 C4.77382758 -0.52969868 9.24953959 -0.80937689 14 0 C16.39251264 2.18391278 17.57129423 4.13354006 18.984375 7.03125 C19.31953125 7.6809375 19.6546875 8.330625 20 9 C20.66 9 21.32 9 22 9 C22.7435092 7.50705723 23.46962887 6.0054385 24.1875 4.5 C25.73828125 2.00390625 25.73828125 2.00390625 28 0 C33.1056883 -0.81797938 37.87494976 -0.52815403 43 0 C42.45538934 3.69734578 41.58468765 5.97818432 39.3125 8.93359375 C32.20055337 18.59326352 28.48812414 24.73393768 29 37 C28 38 28 38 24.875 38.1328125 C23.59625 38.13023437 22.3175 38.12765625 21 38.125 C19.72125 38.12757813 18.4425 38.13015625 17.125 38.1328125 C14 38 14 38 13 37 C13.04640625 36.17757812 13.0928125 35.35515625 13.140625 34.5078125 C13.47575113 24.14284016 9.6308958 18.45165312 3.48535156 10.39892578 C2.89979492 9.62532715 2.31423828 8.85172852 1.7109375 8.0546875 C1.16743652 7.36874512 0.62393555 6.68280273 0.06396484 5.97607422 C-1 4 -1 4 -0.66943359 1.74658203 C-0.44852051 1.17020996 -0.22760742 0.59383789 0 0 Z " fill="#E5C099" transform="translate(269,256)"/>
<path d="M0 0 C1.1859375 0.00257813 2.371875 0.00515625 3.59375 0.0078125 C4.7796875 0.00523437 5.965625 0.00265625 7.1875 0 C10.09375 0.1328125 10.09375 0.1328125 11.09375 1.1328125 C11.19470564 3.78737443 11.23345998 6.41536426 11.2265625 9.0703125 C11.22751923 9.8655835 11.22847595 10.66085449 11.22946167 11.48022461 C11.23014343 13.1648771 11.22828943 14.84953221 11.22412109 16.53417969 C11.21877275 19.12180447 11.22406619 21.70925566 11.23046875 24.296875 C11.22980797 25.92968789 11.2285268 27.56250066 11.2265625 29.1953125 C11.22858673 29.97447021 11.23061096 30.75362793 11.23269653 31.55639648 C11.20870105 37.01786145 11.20870105 37.01786145 10.09375 38.1328125 C7.92894203 38.2317419 5.76081215 38.2625235 3.59375 38.2578125 C2.4078125 38.26039063 1.221875 38.26296875 0 38.265625 C-2.90625 38.1328125 -2.90625 38.1328125 -3.90625 37.1328125 C-4.00720564 34.47825057 -4.04595998 31.85026074 -4.0390625 29.1953125 C-4.04001923 28.4000415 -4.04097595 27.60477051 -4.04196167 26.78540039 C-4.04264343 25.1007479 -4.04078943 23.41609279 -4.03662109 21.73144531 C-4.03127275 19.14382053 -4.03656619 16.55636934 -4.04296875 13.96875 C-4.04230797 12.33593711 -4.0410268 10.70312434 -4.0390625 9.0703125 C-4.04108673 8.29115479 -4.04311096 7.51199707 -4.04519653 6.70922852 C-4.01652532 0.18355089 -4.01652532 0.18355089 0 0 Z " fill="#FDECAE" transform="translate(202.90625,255.8671875)"/>
<path d="M0 0 C1.3606152 0.03962957 2.72061697 0.11085657 4.078125 0.2109375 C4.77550781 0.23800781 5.47289062 0.26507813 6.19140625 0.29296875 C7.90498205 0.36338967 9.61695802 0.47100837 11.328125 0.5859375 C11.328125 0.9159375 11.328125 1.2459375 11.328125 1.5859375 C9.678125 1.5859375 8.028125 1.5859375 6.328125 1.5859375 C6.328125 2.5759375 6.328125 3.5659375 6.328125 4.5859375 C5.668125 4.5859375 5.008125 4.5859375 4.328125 4.5859375 C4.328125 5.2459375 4.328125 5.9059375 4.328125 6.5859375 C3.668125 6.5859375 3.008125 6.5859375 2.328125 6.5859375 C1.895 7.4521875 1.895 7.4521875 1.453125 8.3359375 C0.41145833 10.41927083 -0.63020833 12.50260417 -1.671875 14.5859375 C-2.331875 14.5859375 -2.991875 14.5859375 -3.671875 14.5859375 C-3.754375 15.1428125 -3.836875 15.6996875 -3.921875 16.2734375 C-4.671875 18.5859375 -4.671875 18.5859375 -6.671875 20.8046875 C-9.10144099 24.1833027 -9.25544043 26.27918194 -9.421875 30.3984375 C-9.47859375 31.55988281 -9.5353125 32.72132813 -9.59375 33.91796875 C-9.61953125 34.79839844 -9.6453125 35.67882812 -9.671875 36.5859375 C-11.651875 36.5859375 -13.631875 36.5859375 -15.671875 36.5859375 C-15.66285156 35.83570313 -15.65382813 35.08546875 -15.64453125 34.3125 C-15.89321257 25.72758827 -18.32186582 21.14439174 -23.671875 14.5859375 C-26.19438597 11.08672258 -28.22798321 7.67696424 -29.671875 3.5859375 C-26.609375 3.0859375 -26.609375 3.0859375 -22.671875 3.5859375 C-19.91868606 5.94100747 -17.81555247 8.67817697 -15.671875 11.5859375 C-15.10984375 12.33359375 -14.5478125 13.08125 -13.96875 13.8515625 C-13.54078125 14.42390625 -13.1128125 14.99625 -12.671875 15.5859375 C-12.589375 14.8434375 -12.506875 14.1009375 -12.421875 13.3359375 C-11.50953781 9.99070114 -10.17188855 8.94309313 -7.671875 6.5859375 C-7.12660156 5.56113281 -6.58132813 4.53632813 -6.01953125 3.48046875 C-3.671875 0.5859375 -3.671875 0.5859375 0 0 Z " fill="#FCE8A6" transform="translate(300.671875,255.4140625)"/>
<path d="M0 0 C4.53117269 4.15357497 8.49535737 8.31582019 9.35822296 14.61523247 C9.49191235 17.80960932 9.49463304 20.98052737 9.45410156 24.17749023 C9.45468567 25.38795517 9.45526978 26.5984201 9.45587158 27.8455658 C9.45357057 31.14709664 9.43358188 34.44761351 9.40557575 37.74896502 C9.38048432 41.20558323 9.37821403 44.66221652 9.37347412 48.11891174 C9.36106695 54.65659533 9.32827632 61.19400974 9.28807616 67.73157507 C9.24328776 75.17774867 9.22135371 82.62393546 9.20129442 90.07021034 C9.15954136 105.38029584 9.08923375 120.69011314 9 136 C8.34 136 7.68 136 7 136 C6.99853344 135.378619 6.99706688 134.75723801 6.99555588 134.11702728 C6.95845435 118.97587594 6.89939559 103.83498161 6.81609726 88.69402313 C6.77634003 81.37185819 6.7439308 74.0498002 6.72900391 66.72753906 C6.71597007 60.34314607 6.68896163 53.95898874 6.64538693 47.57472849 C6.62281057 44.19633063 6.60708699 40.81822302 6.60811615 37.43974304 C6.60574882 33.6619439 6.57868486 29.88506268 6.54589844 26.10742188 C6.5509288 24.99539398 6.55595917 23.88336609 6.56114197 22.73764038 C6.47168077 16.06622468 5.59027944 11.67640819 2 6 C1.34 5.67 0.68 5.34 0 5 C0 44.6 0 84.2 0 125 C-0.33 125 -0.66 125 -1 125 C-1.02334708 109.14499019 -1.04098809 93.289985 -1.05181217 77.43496227 C-1.05697128 70.07341627 -1.06400666 62.71188095 -1.07543945 55.3503418 C-1.08539804 48.9349898 -1.09185624 42.51964553 -1.09408849 36.10428602 C-1.0953936 32.7065452 -1.09846685 29.3088265 -1.10573006 25.91109276 C-1.11295362 22.12064662 -1.11399038 18.3302468 -1.11352539 14.53979492 C-1.11712067 13.40979065 -1.12071594 12.27978638 -1.12442017 11.11553955 C-1.1230455 10.08488876 -1.12167084 9.05423798 -1.12025452 7.99235535 C-1.12117631 7.09545077 -1.1220981 6.1985462 -1.12304783 5.2744627 C-1 3 -1 3 0 0 Z " fill="#78AAB8" transform="translate(278,29)"/>
<path d="M0 0 C4.46051753 0.37170979 6.89444765 1.81680885 10 5 C15.02270536 12.53154155 15.6900818 19.15858842 15.50756836 28.03710938 C15.50175751 29.30332123 15.49594666 30.56953308 15.48995972 31.87411499 C15.47333661 35.31620326 15.42539716 38.757188 15.37090373 42.19885826 C15.31862241 45.80921996 15.29384335 49.41978103 15.26551819 53.03039551 C15.2140675 59.08271723 15.14342128 65.1345646 15.05981445 71.18652344 C14.96322945 78.185939 14.89126407 85.18525646 14.83359998 92.18509436 C14.77206121 99.64725582 14.69537963 107.10919825 14.61276937 114.57115364 C14.58982689 116.72032919 14.56943262 118.86951732 14.54948235 121.01872253 C14.51130766 125.01202274 14.45583866 129.004978 14.39819336 132.99804688 C14.38817795 134.19074188 14.37816254 135.38343689 14.36784363 136.61227417 C14.34945435 137.69441193 14.33106506 138.77654968 14.31211853 139.89147949 C14.30009368 140.83531242 14.28806883 141.77914536 14.27567959 142.75157928 C14 145 14 145 12 147 C11.99503478 145.99282236 11.99503478 145.99282236 11.98996925 144.9652977 C11.90877172 128.63225808 11.81668999 112.29931985 11.71247292 95.96641159 C11.66233731 88.06795949 11.61589451 80.16951781 11.578125 72.27099609 C11.54519823 65.38716452 11.50536325 58.50341364 11.45720994 51.61967111 C11.43195171 47.97431296 11.41016847 44.3290083 11.39665604 40.68358612 C11.38144731 36.61543671 11.35081673 32.54754441 11.31884766 28.47949219 C11.31668747 27.26892654 11.31452728 26.0583609 11.31230164 24.81111145 C11.30113815 23.70335861 11.28997467 22.59560577 11.2784729 21.45428467 C11.27294214 20.49193279 11.26741138 19.52958092 11.26171303 18.53806686 C11.14944993 15.9807492 11.14944993 15.9807492 9.92009544 13.84660721 C9 12 9 12 10 9 C9.030625 8.7525 8.06125 8.505 7.0625 8.25 C6.051875 7.8375 5.04125 7.425 4 7 C3.375 5 3.375 5 3 3 C1.0162233 1.71563266 1.0162233 1.71563266 -1 1 C-0.67 0.67 -0.34 0.34 0 0 Z " fill="#C55374" transform="translate(263,13)"/>
<path d="M0 0 C0 0.66 0 1.32 0 2 C-0.9075 2.350625 -1.815 2.70125 -2.75 3.0625 C-6.91857529 5.54761219 -7.89152626 7.70195737 -10 12 C-10.66 12 -11.32 12 -12 12 C-11.96280443 28.95952958 -11.90290134 45.9188073 -11.81609726 62.87815189 C-11.77631814 70.75299984 -11.74391997 78.62774802 -11.72900391 86.50268555 C-11.71598148 93.36792594 -11.68900196 100.23294671 -11.64538693 107.09806341 C-11.62278511 110.73184825 -11.60708853 114.36536234 -11.60811615 117.99922371 C-11.60900256 122.05976962 -11.57872391 126.11951825 -11.54589844 130.17993164 C-11.5509288 131.37971146 -11.55595917 132.57949127 -11.56114197 133.81562805 C-11.47746389 140.50296901 -10.84076676 144.49988387 -7 150 C-6.25 152.9375 -6.25 152.9375 -6 155 C-10.15148599 153.61617134 -10.97126074 151.53210969 -12.95124817 147.7583046 C-14.89162106 142.65496241 -14.67631793 137.55449013 -14.61523438 132.15576172 C-14.62078339 130.89772736 -14.6263324 129.63969299 -14.63204956 128.34353638 C-14.64620567 124.9177923 -14.62932972 121.49285976 -14.60576439 118.06719351 C-14.58554375 114.4696962 -14.59154059 110.87222892 -14.59387207 107.27468872 C-14.59381863 101.23751565 -14.57413926 95.20065696 -14.54199219 89.16357422 C-14.50507165 82.19644045 -14.49632262 75.22971758 -14.5032897 68.26249874 C-14.50960632 61.54072803 -14.49882119 54.81909731 -14.47932434 48.09735489 C-14.47117686 45.24504721 -14.46843586 42.39281134 -14.47001648 39.54049301 C-14.4710629 35.55532685 -14.44682583 31.57052916 -14.41992188 27.58544922 C-14.42285248 26.40915955 -14.42578308 25.23286987 -14.42880249 24.02093506 C-14.33937814 15.42929433 -13.09307902 9.45149543 -7 3 C-2.65517241 0 -2.65517241 0 0 0 Z " fill="#BD345F" transform="translate(75,13)"/>
<path d="M0 0 C1.16273437 -0.02578125 2.32546875 -0.0515625 3.5234375 -0.078125 C6.625 0.25 6.625 0.25 8.375 1.41796875 C13.2499705 8.56284738 15.41673355 16.69214212 15.625 25.25 C14.965 25.58 14.305 25.91 13.625 26.25 C5.47568412 10.18872695 5.47568412 10.18872695 3.9375 4.875 C2.12615014 2.24785454 2.12615014 2.24785454 -5.375 2.25 C-5.045 13.47 -4.715 24.69 -4.375 36.25 C-2.725 36.25 -1.075 36.25 0.625 36.25 C0.955 30.97 1.285 25.69 1.625 20.25 C2.285 20.25 2.945 20.25 3.625 20.25 C6.39971079 26.49309927 7.00134203 31.44796625 6.625 38.25 C4.47923363 38.27685938 2.33337355 38.29633088 0.1875 38.3125 C-1.00746094 38.32410156 -2.20242187 38.33570313 -3.43359375 38.34765625 C-6.375 38.25 -6.375 38.25 -7.375 37.25 C-7.47595564 34.59543807 -7.51470998 31.96744824 -7.5078125 29.3125 C-7.50876923 28.517229 -7.50972595 27.72195801 -7.51071167 26.90258789 C-7.51139343 25.2179354 -7.50953943 23.53328029 -7.50537109 21.84863281 C-7.50002275 19.26100803 -7.50531619 16.67355684 -7.51171875 14.0859375 C-7.51105797 12.45312461 -7.5097768 10.82031184 -7.5078125 9.1875 C-7.50983673 8.40834229 -7.51186096 7.62918457 -7.51394653 6.82641602 C-7.48353932 -0.09438182 -6.78651349 0.0898876 0 0 Z " fill="#D9C49B" transform="translate(49.375,255.75)"/>
<path d="M0 0 C1.4540625 0.0309375 1.4540625 0.0309375 2.9375 0.0625 C2.96255615 0.71323486 2.9876123 1.36396973 3.01342773 2.03442383 C3.12943702 4.98148046 3.25214115 7.9282213 3.375 10.875 C3.41431641 11.89916016 3.45363281 12.92332031 3.49414062 13.97851562 C3.53603516 14.96142578 3.57792969 15.94433594 3.62109375 16.95703125 C3.65775146 17.86300049 3.69440918 18.76896973 3.73217773 19.70239258 C3.8583205 22.21298782 3.8583205 22.21298782 4.9375 25.0625 C6.82066159 26.17086423 6.82066159 26.17086423 8.9375 27.0625 C9.9275 27.7225 10.9175 28.3825 11.9375 29.0625 C11.9375 29.7225 11.9375 30.3825 11.9375 31.0625 C12.5975 31.3925 13.2575 31.7225 13.9375 32.0625 C14.2675 32.7225 14.5975 33.3825 14.9375 34.0625 C9.25095526 35.33907127 6.02607867 34.94282755 0.9375 32.0625 C-3.62033712 27.50466288 -4.18699942 23.25993318 -4.1953125 17.015625 C-4.19660156 16.08878906 -4.19789062 15.16195313 -4.19921875 14.20703125 C-4.19535156 13.25183594 -4.19148438 12.29664063 -4.1875 11.3125 C-4.19136719 10.34183594 -4.19523437 9.37117188 -4.19921875 8.37109375 C-4.19792969 7.44941406 -4.19664063 6.52773438 -4.1953125 5.578125 C-4.19418457 4.73540039 -4.19305664 3.89267578 -4.19189453 3.02441406 C-3.97536601 -0.25864856 -3.35786461 0.06852785 0 0 Z " fill="#FCE8A7" transform="translate(106.0625,257.9375)"/>
<path d="M0 0 C8 0 8 0 10 1.9375 C11.30818314 5.94381085 11.79672765 9.82889641 11 14 C9.4765625 15.7734375 9.4765625 15.7734375 8 17 C7.34 16.67 6.68 16.34 6 16 C6 21.61 6 27.22 6 33 C4.02 33.66 2.04 34.32 0 35 C0 23.45 0 11.9 0 0 Z " fill="#FCE9A5" transform="translate(44,258)"/>
<path d="M0 0 C0.66 0 1.32 0 2 0 C5.6787596 5.66028293 5.38919011 10.9193665 5.29296875 17.5234375 C5.28872391 18.62475006 5.28447906 19.72606262 5.28010559 20.86074829 C5.2633615 24.36575133 5.22571614 27.87017179 5.1875 31.375 C5.17244769 33.75650209 5.15876024 36.13801323 5.14648438 38.51953125 C5.11347193 44.34655172 5.06331464 50.17323423 5 56 C5.66 56 6.32 56 7 56 C7 42.8 7 29.6 7 16 C7.66 16 8.32 16 9 16 C9 29.2 9 42.4 9 56 C10.98 56 12.96 56 15 56 C15 56.66 15 57.32 15 58 C15.99 58 16.98 58 18 58 C18 58.66 18 59.32 18 60 C18.825 60.2475 19.65 60.495 20.5 60.75 C24.52373471 62.18704811 28.21979024 64.02354515 32 66 C30 67 30 67 27.3984375 66.22265625 C26.40070313 65.83980469 25.40296875 65.45695312 24.375 65.0625 C23.37210938 64.68222656 22.36921875 64.30195312 21.3359375 63.91015625 C20.56507813 63.60980469 19.79421875 63.30945313 19 63 C19 62.34 19 61.68 19 61 C18.2265625 60.814375 18.2265625 60.814375 17.4375 60.625 C15.40006917 60.10258184 13.38382596 59.49842875 11.375 58.875 C8.15899773 57.64659749 8.15899773 57.64659749 6 59 C5.34444881 61.52733235 5.34444881 61.52733235 5 64 C4.34 64 3.68 64 3 64 C2.99191315 63.27194656 2.98382629 62.54389313 2.97549438 61.79377747 C2.89745908 54.92275173 2.81014144 48.05189945 2.71247292 41.18112659 C2.66258932 37.64902973 2.61625893 34.11696161 2.578125 30.5847168 C2.53409746 26.52113239 2.47447893 22.45790528 2.4140625 18.39453125 C2.40251129 17.1297847 2.39096008 15.86503815 2.37905884 14.56196594 C2.35918915 13.38111923 2.33931946 12.20027252 2.31884766 10.98364258 C2.30552399 9.94661697 2.29220032 8.90959137 2.2784729 7.84114075 C1.98924327 4.89025368 1.23589107 2.68095809 0 0 Z " fill="#E94D5E" transform="translate(198,56)"/>
<path d="M0 0 C2.97 0.495 2.97 0.495 6 1 C6 1.66 6 2.32 6 3 C6.85920044 2.97335266 7.71840088 2.94670532 8.6036377 2.91925049 C16.72394188 2.67822464 24.84303623 2.49583086 32.9661026 2.37825394 C37.14204652 2.31576741 41.31502256 2.23113011 45.48925781 2.09472656 C49.52254531 1.96376258 53.55299134 1.89248251 57.58824158 1.86147308 C59.12276468 1.83939663 60.65714171 1.79627542 62.19044495 1.73123932 C66.98623033 1.53602291 71.35975055 1.57630585 76 3 C80.38190358 7.0681943 83.79221309 11.79109513 84.18713379 17.88995361 C84.09450256 18.93442657 84.09450256 18.93442657 84 20 C75.53253681 19.96184688 67.0655998 19.90234691 58.59850311 19.81609726 C54.66623848 19.77670143 50.73419513 19.74447465 46.80175781 19.72900391 C43.00188845 19.71378471 39.20262775 19.67924763 35.4030304 19.63169098 C33.95833141 19.61693103 32.5135455 19.60896209 31.06877136 19.60811615 C21.56283586 19.59695935 14.98791045 18.94392919 7.3125 12.875 C4.13511562 8.92473834 2.09696009 4.59546573 0 0 Z M5 4 C6.2852823 7.38696708 7.26781703 9.59567899 10 12 C10.433125 12.495 10.86625 12.99 11.3125 13.5 C15.56843169 17.28305039 19.79086114 18.37474983 25.37255859 18.34057617 C26.61339203 18.34034958 27.85422546 18.34012299 29.13265991 18.33988953 C30.47125619 18.32457335 31.80984871 18.30892542 33.1484375 18.29296875 C34.5299127 18.28736721 35.91139389 18.28309975 37.2928772 18.28010559 C40.91303216 18.26870058 44.53282087 18.23927169 48.15283203 18.20599365 C51.85313972 18.17519841 55.5535071 18.16158015 59.25390625 18.14648438 C66.50277038 18.11439707 73.75133369 18.06325431 81 18 C81 17.34 81 16.68 81 16 C80.01 16 79.02 16 78 16 C78.226875 15.29875 78.45375 14.5975 78.6875 13.875 C79.09753727 10.10265715 77.89977609 8.21500569 76 5 C74.907817 3.68252989 74.907817 3.68252989 72.22227478 3.87974548 C70.36029198 3.8830764 70.36029198 3.8830764 68.46069336 3.88647461 C67.77779739 3.88632858 67.09490143 3.88618256 66.39131165 3.8860321 C64.12412386 3.88673124 61.85701726 3.8945236 59.58984375 3.90234375 C58.02185613 3.90420793 56.45386793 3.90563183 54.88587952 3.90663147 C50.75123497 3.91045666 46.61662534 3.92028694 42.48199463 3.93133545 C38.26599602 3.94154956 34.04999178 3.94612909 29.83398438 3.95117188 C21.55597353 3.96190921 13.2779911 3.97898564 5 4 Z " fill="#819DAE" transform="translate(69,169)"/>
<path d="M0 0 C1.47906892 -0.02689216 2.95827483 -0.04634621 4.4375 -0.0625 C5.26121094 -0.07410156 6.08492188 -0.08570313 6.93359375 -0.09765625 C9 0 9 0 10 1 C10.10095564 3.65456193 10.13970998 6.28255176 10.1328125 8.9375 C10.13376923 9.732771 10.13472595 10.52804199 10.13571167 11.34741211 C10.13639343 13.0320646 10.13453943 14.71671971 10.13037109 16.40136719 C10.12502275 18.98899197 10.13031619 21.57644316 10.13671875 24.1640625 C10.13605797 25.79687539 10.1347768 27.42968816 10.1328125 29.0625 C10.13483673 29.84165771 10.13686096 30.62081543 10.13894653 31.42358398 C10.11495105 36.88504895 10.11495105 36.88504895 9 38 C7.35 38 5.7 38 4 38 C4 26.12 4 14.24 4 2 C2.68 2 1.36 2 0 2 C0 1.34 0 0.68 0 0 Z " fill="#DC5167" transform="translate(80,256)"/>
<path d="M0 0 C1.98 0 3.96 0 6 0 C6.08796382 3.66651247 6.14071247 7.33274918 6.1875 11 C6.21263672 12.02996094 6.23777344 13.05992187 6.26367188 14.12109375 C6.32658774 20.70628752 6.2772475 27.30262304 1.65356445 32.51904297 C-2.87806266 36.53895304 -6.97936757 38.34403614 -13 38 C-11 35 -11 35 -8.125 33.875 C-3.65589203 31.19353522 -2.50594963 27.89455788 -1 23 C-0.42719764 18.9761144 -0.30636071 14.99803324 -0.25 10.9375 C-0.22035156 9.88111328 -0.19070312 8.82472656 -0.16015625 7.73632812 C-0.09014224 5.15747862 -0.03711046 2.57949697 0 0 Z " fill="#E64F5F" transform="translate(134,257)"/>
<path d="M0 0 C3.77800868 0.53971553 5.71576111 1.95434815 8 5 C7.73841268 9.41065294 6.09604623 11.35449639 2.9375 14.3125 C2.20402344 15.00988281 1.47054687 15.70726562 0.71484375 16.42578125 C-0.13400391 17.20501953 -0.13400391 17.20501953 -1 18 C0.80534637 22.10555926 3.53822339 24.82078231 6.63671875 28 C8 30 8 30 7.8203125 32.10546875 C6.66909662 34.76422922 5.28686259 36.23584886 3 38 C0.75 37.75 0.75 37.75 -1 37 C-0.67 36.443125 -0.34 35.88625 0 35.3125 C1.1309601 32.69715478 1.15662974 30.8193354 1 28 C0.46375 27.79375 -0.0725 27.5875 -0.625 27.375 C-3.91978009 25.46749574 -6.59363628 22.95180616 -9 20 C-9 18 -9 18 -6.875 15.6875 C-3.99682278 12.99702999 -1.0544225 10.48615785 2 8 C1.67 7.4225 1.34 6.845 1 6.25 C0 4 0 4 0 0 Z " fill="#E75969" transform="translate(182,256)"/>
<path d="M0 0 C1.65 0 3.3 0 5 0 C4.38992463 3.23429664 3.2997712 5.22992602 1.3125 7.8359375 C-5.78374847 17.51711789 -9.51190445 23.73325262 -9 36 C-10 37 -10 37 -12.5625 37.0625 C-13.366875 37.041875 -14.17125 37.02125 -15 37 C-15.05428973 34.77110504 -15.09292338 32.54182529 -15.125 30.3125 C-15.15980469 28.45044922 -15.15980469 28.45044922 -15.1953125 26.55078125 C-14.9044893 21.26361544 -12.97604631 17.34006754 -10 13 C-9.34 13 -8.68 13 -8 13 C-7.566875 11.8553125 -7.566875 11.8553125 -7.125 10.6875 C-6 8 -6 8 -4 5 C-3.34 5 -2.68 5 -2 5 C-2 4.34 -2 3.68 -2 3 C-1.34 3 -0.68 3 0 3 C0 2.01 0 1.02 0 0 Z " fill="#DE4467" transform="translate(307,257)"/>
<path d="M0 0 C2.94921875 -0.37231445 2.94921875 -0.37231445 6.6875 -0.36328125 C7.34580811 -0.36377975 8.00411621 -0.36427826 8.68237305 -0.36479187 C10.07441221 -0.36245104 11.46645557 -0.3527218 12.85839844 -0.33618164 C14.9919205 -0.31258934 17.12419319 -0.3156196 19.2578125 -0.32226562 C29.72090689 -0.27909311 29.72090689 -0.27909311 32 2 C32.33333333 7.33333333 32.33333333 7.33333333 31 10 C29.35 10 27.7 10 26 10 C26 7.69 26 5.38 26 3 C17.75 3 9.5 3 1 3 C1.33 6.63 1.66 10.26 2 14 C2.01304791 15.96261133 1.98580124 17.9269772 1.87890625 19.88671875 C1.83056641 20.84384766 1.78222656 21.80097656 1.73242188 22.78710938 C1.67634766 23.74423828 1.62027344 24.70136719 1.5625 25.6875 C1.51029297 26.68716797 1.45808594 27.68683594 1.40429688 28.71679688 C1.27649684 31.14499749 1.14165599 33.57257523 1 36 C0.34 35.67 -0.32 35.34 -1 35 C-2.25237991 28.27543778 -2.18336803 21.50937838 -2.1875 14.6875 C-2.19974609 13.60404297 -2.21199219 12.52058594 -2.22460938 11.40429688 C-2.22654297 10.36724609 -2.22847656 9.33019531 -2.23046875 8.26171875 C-2.23457764 7.32287842 -2.23868652 6.38403809 -2.24291992 5.41674805 C-2 3 -2 3 0 0 Z " fill="#E6CFA7" transform="translate(227,256)"/>
<path d="M0 0 C1.98 0 3.96 0 6 0 C6 11.88 6 23.76 6 36 C4.02 36 2.04 36 0 36 C0 24.12 0 12.24 0 0 Z " fill="#F3536C" transform="translate(208,257)"/>
<path d="M0 0 C1.65 0 3.3 0 5 0 C5 1.98 5 3.96 5 6 C5.99902344 5.98839844 6.99804688 5.97679687 8.02734375 5.96484375 C9.31769531 5.95582031 10.60804688 5.94679688 11.9375 5.9375 C13.22527344 5.92589844 14.51304687 5.91429687 15.83984375 5.90234375 C19 6 19 6 20 7 C20.1328125 8.8125 20.1328125 8.8125 20.125 11 C20.12886719 12.0828125 20.12886719 12.0828125 20.1328125 13.1875 C20 15 20 15 19 16 C16.81707226 16.23481693 14.62796826 16.41363323 12.4375 16.5625 C10.64119141 16.68818359 10.64119141 16.68818359 8.80859375 16.81640625 C7.88175781 16.87699219 6.95492187 16.93757813 6 17 C6 20.3 6 23.6 6 27 C4.02 27 2.04 27 0 27 C0 22.71 0 18.42 0 14 C4.62 14 9.24 14 14 14 C14 12.02 14 10.04 14 8 C9.38 8 4.76 8 0 8 C0 5.36 0 2.72 0 0 Z " fill="#DC8280" transform="translate(235,266)"/>
<path d="M0 0 C2.64 0.66 5.28 1.32 8 2 C8.05834353 5.22909006 8.09371115 8.45804338 8.125 11.6875 C8.14175781 12.59951172 8.15851563 13.51152344 8.17578125 14.45117188 C8.24055271 23.35724709 8.24055271 23.35724709 6 27 C5.01 27.33 4.02 27.66 3 28 C2.67 28.66 2.34 29.32 2 30 C1.34 30 0.68 30 0 30 C-0.33 30.99 -0.66 31.98 -1 33 C-1.99 32.01 -2.98 31.02 -4 30 C-3.360625 29.566875 -2.72125 29.13375 -2.0625 28.6875 C0.37240269 26.69530689 0.87050716 25.1990021 1.20532227 22.09887695 C1.24197998 21.40238037 1.2786377 20.70588379 1.31640625 19.98828125 C1.35830078 19.23095703 1.40019531 18.47363281 1.44335938 17.69335938 C1.48267578 16.90767578 1.52199219 16.12199219 1.5625 15.3125 C1.62727539 14.11657227 1.62727539 14.11657227 1.69335938 12.89648438 C1.79927368 10.93118553 1.90012551 8.96561504 2 7 C1.34 7 0.68 7 0 7 C0 8.65 0 10.3 0 12 C-0.33 12 -0.66 12 -1 12 C-1.02698189 10.37509046 -1.04638757 8.75005367 -1.0625 7.125 C-1.07410156 6.22007812 -1.08570312 5.31515625 -1.09765625 4.3828125 C-1 2 -1 2 0 0 Z " fill="#FDECA8" transform="translate(125,256)"/>
<path d="M0 0 C3.13434023 2.28590676 5.86378973 4.74821326 8 8 C7.71875 10.265625 7.71875 10.265625 7 12 C5.3125 11.875 5.3125 11.875 3 11 C2.278125 9.96875 1.55625 8.9375 0.8125 7.875 C-0.36099876 6.18092411 -0.36099876 6.18092411 -2 5 C-5.13157963 4.76803114 -7.95813574 5.27101292 -11 6 C-10.278125 6.721875 -9.55625 7.44375 -8.8125 8.1875 C-7.4203125 9.5796875 -7.4203125 9.5796875 -6 11 C-5.0925 11.845625 -4.185 12.69125 -3.25 13.5625 C-1.01120518 15.98786106 -0.3279943 16.82143709 0 20 C-0.92578125 21.921875 -0.92578125 21.921875 -2.3125 23.75 C-2.98732422 24.67039062 -2.98732422 24.67039062 -3.67578125 25.609375 C-4.11277344 26.06828125 -4.54976562 26.5271875 -5 27 C-5.66 27 -6.32 27 -7 27 C-8.3079635 29.15429283 -9.05130331 30.45276464 -8.8125 33 C-7.86632381 35.32904908 -6.59058401 37.06363686 -5 39 C-8.36591866 37.55746343 -10.51047079 35.66735273 -13 33 C-11.65515286 28.95838045 -9.9494838 26.61321846 -6.875 23.6875 C-6.15054688 22.99011719 -5.42609375 22.29273438 -4.6796875 21.57421875 C-3.84824219 20.79498047 -3.84824219 20.79498047 -3 20 C-4.47721422 16.54798361 -6.43794001 14.35038064 -9.125 11.75 C-9.84945312 11.04359375 -10.57390625 10.3371875 -11.3203125 9.609375 C-11.87460938 9.07828125 -12.42890625 8.5471875 -13 8 C-10.4823422 1.28258116 -7.52052981 -1.3787638 0 0 Z " fill="#E7D5AC" transform="translate(161,256)"/>
<path d="M0 0 C0.99 0.495 0.99 0.495 2 1 C0.50314027 5.49057919 -3.10295824 7.6652467 -7 10 C-10.35452129 11.11817376 -12.86418264 11.1202587 -16.39916992 11.11352539 C-17.36543053 11.11374443 -17.36543053 11.11374443 -18.35121155 11.1139679 C-20.47766502 11.11327195 -22.6040306 11.10549448 -24.73046875 11.09765625 C-26.20591687 11.09579094 -27.68136561 11.09436757 -29.15681458 11.09336853 C-33.03825595 11.08955226 -36.91965985 11.07972956 -40.80108643 11.06866455 C-44.76256808 11.05843131 -48.72405581 11.05386681 -52.68554688 11.04882812 C-60.45704833 11.0381065 -68.22851891 11.02104075 -76 11 C-76 10.67 -76 10.34 -76 10 C-67.09 10 -58.18 10 -49 10 C-49 9.34 -49 8.68 -49 8 C-48.01717041 8.01571045 -47.03434082 8.0314209 -46.02172852 8.04760742 C-42.33724324 8.10235583 -38.65279311 8.13651141 -34.96801758 8.16479492 C-33.38039074 8.17978013 -31.79280457 8.20017546 -30.20532227 8.22631836 C-21.60511438 8.36428961 -14.08023407 8.34991206 -6 5 C-5.01 5 -4.02 5 -3 5 C-2.814375 4.0409375 -2.814375 4.0409375 -2.625 3.0625 C-2.41875 2.381875 -2.2125 1.70125 -2 1 C-1.34 0.67 -0.68 0.34 0 0 Z " fill="#65BAC5" transform="translate(281,177)"/>
<path d="M0 0 C2.625 -0.1875 2.625 -0.1875 5 0 C5 0.66 5 1.32 5 2 C6.32 2 7.64 2 9 2 C9 13.88 9 25.76 9 38 C1 38 1 38 -1 37 C-2.66619446 36.9603287 -4.33391013 36.95615553 -6 37 C-4.83805848 30.53287812 -2.8751252 24.90377651 0 19 C0.66 19 1.32 19 2 19 C2 24.61 2 30.22 2 36 C3.98 36 5.96 36 8 36 C8 25.11 8 14.22 8 3 C5.36 3 2.72 3 0 3 C0 4.32 0 5.64 0 7 C-0.66 7 -1.32 7 -2 7 C-2.33 8.65 -2.66 10.3 -3 12 C-3.66 12 -4.32 12 -5 12 C-4.54738642 10.56068883 -4.08767021 9.12361001 -3.625 7.6875 C-3.24214844 6.48673828 -3.24214844 6.48673828 -2.8515625 5.26171875 C-2 3 -2 3 0 0 Z " fill="#FBCFA5" transform="translate(75,256)"/>
<path d="M0 0 C1.66611905 -0.042721 3.33382885 -0.04063832 5 0 C6.65904065 1.65904065 6.18717382 3.67171365 6.24609375 5.953125 C6.27896484 6.96503906 6.31183594 7.97695313 6.34570312 9.01953125 C6.40645433 11.15745658 6.46379739 13.29548172 6.51757812 15.43359375 C6.55173828 16.45066406 6.58589844 17.46773438 6.62109375 18.515625 C6.6461499 19.44665039 6.67120605 20.37767578 6.69702148 21.33691406 C7.02113825 24.18579855 7.8222316 26.39765902 9 29 C4.66696389 28.51855154 2.72999783 27.39774637 0 24 C-0.45410156 21.34277344 -0.45410156 21.34277344 -0.390625 18.359375 C-0.37773438 17.28945313 -0.36484375 16.21953125 -0.3515625 15.1171875 C-0.31804687 14.00601562 -0.28453125 12.89484375 -0.25 11.75 C-0.23195313 10.62335938 -0.21390625 9.49671875 -0.1953125 8.3359375 C-0.14820222 5.55643104 -0.08243361 2.7786466 0 0 Z " fill="#E93A58" transform="translate(109,256)"/>
<path d="M0 0 C2.77012343 1.38506172 2.88030991 2.8798775 3.9375 5.75 C5.3423097 9.42452091 6.88264556 12.67272874 9 16 C9.33 16.99 9.66 17.98 10 19 C9.01 19.33 8.02 19.66 7 20 C6.34 18.35 5.68 16.7 5 15 C4.01 15.33 3.02 15.66 2 16 C2.99 19.63 3.98 23.26 5 27 C7.64 27 10.28 27 13 27 C13.33 26.34 13.66 25.68 14 25 C14 25.99 14 26.98 14 28 C15.32 28.33 16.64 28.66 18 29 C15.72923158 29.02699725 13.45837179 29.04639453 11.1875 29.0625 C9.29064453 29.07990234 9.29064453 29.07990234 7.35546875 29.09765625 C4 29 4 29 1 28 C0.86722656 27.19175781 0.73445313 26.38351562 0.59765625 25.55078125 C0.42105469 24.48214844 0.24445312 23.41351563 0.0625 22.3125 C-0.11152344 21.25675781 -0.28554688 20.20101563 -0.46484375 19.11328125 C-0.93167121 16.39750396 -1.44422616 13.69875765 -2 11 C-2.66 11 -3.32 11 -4 11 C-4 16.28 -4 21.56 -4 27 C-4.99 27.33 -5.98 27.66 -7 28 C-7 27.34 -7 26.68 -7 26 C-6.34 26 -5.68 26 -5 26 C-5 20.39 -5 14.78 -5 9 C-3.68 8.34 -2.36 7.68 -1 7 C-0.18129815 3.43793339 -0.18129815 3.43793339 0 0 Z " fill="#FCD19F" transform="translate(55,265)"/>
<path d="M0 0 C1.1055189 0.93590504 2.20935453 1.87379858 3.3125 2.8125 C4.23482422 3.59560547 4.23482422 3.59560547 5.17578125 4.39453125 C8.54498507 7.3597192 8.54498507 7.3597192 10 9 C9.6828368 12.171632 8.22070812 15.07030051 7 18 C3.37386801 17.43040847 1.74482259 16.07625466 -0.75 13.4375 C-1.36359375 12.79683594 -1.9771875 12.15617187 -2.609375 11.49609375 C-3.06828125 11.00238281 -3.5271875 10.50867188 -4 10 C-6.86633828 11.3023278 -8.29065914 12.29774839 -10.5625 14.625 C-13 17 -13 17 -16 17 C-15.52354792 12.71193127 -14.34097516 10.73352513 -11 8 C-10.34 8 -9.68 8 -9 8 C-8.67 7.01 -8.34 6.02 -8 5 C-5.625 5.1875 -5.625 5.1875 -3 6 C-2.28272222 7.64551962 -1.61674772 9.31422289 -1 11 C0.9001177 12.24174796 0.9001177 12.24174796 3 13 C3.99 13.66 4.98 14.32 6 15 C6 13.02 6 11.04 6 9 C5.34 9 4.68 9 4 9 C4 8.34 4 7.68 4 7 C3.01 7.33 2.02 7.66 1 8 C-1.125 3.375 -1.125 3.375 0 0 Z " fill="#FDE1A2" transform="translate(174,277)"/>
<path d="M0 0 C1.8432058 -0.01925285 1.8432058 -0.01925285 3.72364807 -0.03889465 C5.06828404 -0.04706627 6.4129246 -0.05450919 7.75756836 -0.0612793 C8.43738707 -0.06535482 9.11720577 -0.06943035 9.81762505 -0.07362938 C13.42121957 -0.0944828 17.02477619 -0.10878334 20.62841797 -0.11816406 C24.32805137 -0.12918149 28.02707548 -0.16352806 31.72649479 -0.20333576 C34.58950312 -0.2296537 37.4523702 -0.23786957 40.31548882 -0.24144554 C42.3349303 -0.24861028 44.35427464 -0.27499052 46.37355042 -0.30183411 C53.88133718 -0.28427468 60.45918753 0.25637335 67.03491211 4.17700195 C67.52991211 5.16700195 67.52991211 5.16700195 68.03491211 6.17700195 C67.12137215 5.85725655 67.12137215 5.85725655 66.18937683 5.53105164 C57.81427281 2.89735933 49.76680411 2.7881455 41.08569336 2.8840332 C39.57684251 2.88964194 38.06798612 2.89390598 36.55912781 2.89689636 C32.62505492 2.90824478 28.6913246 2.9376231 24.75738525 2.9710083 C20.72819653 3.00192749 16.6989514 3.01544795 12.66967773 3.03051758 C4.7912669 3.06250464 -3.08686765 3.11357656 -10.96508789 3.17700195 C-7.62646835 -0.16161759 -4.50788788 0.04099967 0 0 Z " fill="#FEAC91" transform="translate(126.965087890625,48.822998046875)"/>
<path d="M0 0 C2.49977543 3.33303391 3 4.73303602 3 9 C2.01 9.66 1.02 10.32 0 11 C-0.99 9.02 -1.98 7.04 -3 5 C-4.91548164 5.5337314 -4.91548164 5.5337314 -7 7 C-7.598125 8.175625 -8.19625 9.35125 -8.8125 10.5625 C-9.78515625 12.4453125 -9.78515625 12.4453125 -11 14 C-14.75 14.9375 -14.75 14.9375 -18 15 C-18 13.35 -18 11.7 -18 10 C-19.65 10 -21.3 10 -23 10 C-23.33 10.66 -23.66 11.32 -24 12 C-23.34 12 -22.68 12 -22 12 C-22.33 12.66 -22.66 13.32 -23 14 C-24.33897583 13.04956626 -25.67105427 12.08940853 -27 11.125 C-27.7425 10.59132813 -28.485 10.05765625 -29.25 9.5078125 C-30.11625 8.76144531 -30.11625 8.76144531 -31 8 C-31 7.34 -31 6.68 -31 6 C-28.00641104 4.97604909 -25.16980833 4.16432117 -22 4 C-18.9375 6.25 -18.9375 6.25 -17 9 C-17 9.66 -17 10.32 -17 11 C-15.68 11 -14.36 11 -13 11 C-12.67 10.01 -12.34 9.02 -12 8 C-4.6 0 -4.6 0 0 0 Z " fill="#FEE0A8" transform="translate(181,256)"/>
<path d="M0 0 C0 0.66 0 1.32 0 2 C-4.49729505 4.58488964 -7.72199766 5.37505189 -12.89160156 5.37231445 C-13.55250793 5.37596512 -14.21341431 5.37961578 -14.89434814 5.38337708 C-17.06004211 5.39142705 -19.224975 5.37792577 -21.390625 5.36328125 C-22.90183512 5.36276222 -24.41304592 5.36328158 -25.92425537 5.36479187 C-29.08144287 5.36470241 -32.2383736 5.35432283 -35.39550781 5.33618164 C-39.44655151 5.31341723 -43.49722297 5.31296715 -47.54831314 5.31969929 C-50.66407597 5.32303517 -53.77975351 5.31641772 -56.89550018 5.30657005 C-58.38986516 5.302717 -59.8842396 5.30157027 -61.3786087 5.3031559 C-63.46125003 5.30352563 -65.54340773 5.29093579 -67.62597656 5.2746582 C-68.81145081 5.27005081 -69.99692505 5.26544342 -71.21832275 5.26069641 C-74 5 -74 5 -76 3 C-74.7199987 2.98786972 -74.7199987 2.98786972 -73.41413879 2.97549438 C-65.36583643 2.8975008 -57.31770026 2.81019566 -49.26961231 2.71247292 C-45.13216812 2.66256194 -40.99474882 2.61623152 -36.85717773 2.578125 C-32.86296953 2.5412064 -28.86897219 2.49482876 -24.87494469 2.44193649 C-23.35239047 2.42342744 -21.82979111 2.40830662 -20.30716896 2.39665604 C-18.1717642 2.37973355 -16.0368387 2.35068504 -13.90161133 2.31884766 C-12.07959953 2.29886215 -12.07959953 2.29886215 -10.22077942 2.2784729 C-6.58320923 1.96396371 -3.53362498 0 0 0 Z " fill="#EB5564" transform="translate(194,128)"/>
<path d="M0 0 C1.36567758 -0.00134946 2.73135469 -0.00329234 4.09703064 -0.00579834 C6.94892992 -0.00873538 9.80070332 -0.0044973 12.65258789 0.00488281 C16.29627766 0.01628748 19.93967305 0.00970261 23.58335209 -0.00226212 C26.39987889 -0.00950999 29.21633658 -0.00717958 32.03286552 -0.00200653 C34.02582365 -0.00003626 36.01878453 -0.00607708 38.01173401 -0.01226807 C39.2299736 -0.00596375 40.4482132 0.00034058 41.70336914 0.00683594 C43.3038485 0.00922272 43.3038485 0.00922272 44.93666077 0.01165771 C48.2074057 0.28596816 50.90285345 1.11083013 53.96484375 2.265625 C53.63484375 2.925625 53.30484375 3.585625 52.96484375 4.265625 C52.10620728 4.10362106 51.2475708 3.94161713 50.36291504 3.77470398 C47.04853875 3.27816369 43.94428964 3.13209558 40.59570312 3.12036133 C39.35421509 3.11398148 38.11272705 3.10760162 36.83361816 3.10102844 C35.49194376 3.0994998 34.15026883 3.09838582 32.80859375 3.09765625 C31.41906704 3.09443897 30.02954066 3.09107455 28.64001465 3.08757019 C25.73509943 3.08160015 22.83021388 3.0797282 19.92529297 3.08032227 C16.21321631 3.080424 12.50133044 3.06675101 8.78929901 3.04955006 C5.92217137 3.0384051 3.05508959 3.03640379 0.1879425 3.03693199 C-1.18031982 3.03575644 -2.54858351 3.03135864 -3.91682434 3.02359962 C-5.83319612 3.01374567 -7.74962439 3.01795592 -9.66601562 3.02270508 C-10.75378296 3.02128006 -11.84155029 3.01985504 -12.96228027 3.01838684 C-16.25673011 3.28345244 -18.95350474 4.09923472 -22.03515625 5.265625 C-21.70515625 4.275625 -21.37515625 3.285625 -21.03515625 2.265625 C-14.38083218 -0.63592407 -7.1319079 -0.02218932 0 0 Z " fill="#EC3E59" transform="translate(137.03515625,46.734375)"/>
<path d="M0 0 C1.3606152 0.03962957 2.72061697 0.11085657 4.078125 0.2109375 C4.77550781 0.23800781 5.47289062 0.26507813 6.19140625 0.29296875 C7.90498205 0.36338967 9.61695802 0.47100837 11.328125 0.5859375 C11.328125 0.9159375 11.328125 1.2459375 11.328125 1.5859375 C9.678125 1.5859375 8.028125 1.5859375 6.328125 1.5859375 C6.328125 2.5759375 6.328125 3.5659375 6.328125 4.5859375 C5.668125 4.5859375 5.008125 4.5859375 4.328125 4.5859375 C4.328125 5.2459375 4.328125 5.9059375 4.328125 6.5859375 C3.668125 6.5859375 3.008125 6.5859375 2.328125 6.5859375 C1.895 7.4521875 1.895 7.4521875 1.453125 8.3359375 C0.41145833 10.41927083 -0.63020833 12.50260417 -1.671875 14.5859375 C-2.331875 14.5859375 -2.991875 14.5859375 -3.671875 14.5859375 C-4.001875 15.5759375 -4.331875 16.5659375 -4.671875 17.5859375 C-5.084375 16.7609375 -5.496875 15.9359375 -5.921875 15.0859375 C-6.499375 14.2609375 -7.076875 13.4359375 -7.671875 12.5859375 C-8.991875 12.5859375 -10.311875 12.5859375 -11.671875 12.5859375 C-11.671875 11.9259375 -11.671875 11.2659375 -11.671875 10.5859375 C-10.33854167 9.25260417 -9.00520833 7.91927083 -7.671875 6.5859375 C-7.1253125 5.55726563 -6.57875 4.52859375 -6.015625 3.46875 C-3.671875 0.5859375 -3.671875 0.5859375 0 0 Z " fill="#FAE4A4" transform="translate(300.671875,255.4140625)"/>
<path d="M0 0 C1.02058935 2.65353232 1.09573693 3.75663725 0.0378418 6.44580078 C-1.41088302 11.40711245 -1.26607485 16.10048636 -1.23046875 21.2421875 C-1.23001053 22.32452667 -1.22955231 23.40686584 -1.2290802 24.52200317 C-1.22606569 26.80650939 -1.21820343 29.09101369 -1.20581055 31.37548828 C-1.1876001 34.85586916 -1.18530077 38.33598276 -1.18554688 41.81640625 C-1.18062918 44.04166895 -1.17479977 46.26692985 -1.16796875 48.4921875 C-1.16685593 49.52576385 -1.1657431 50.55934021 -1.16459656 51.62423706 C-1.12851086 57.17334654 -0.81910501 62.51015804 0 68 C-3.17421403 63.85972083 -4.12508728 61.78962347 -4.11352539 56.54052734 C-4.11344986 55.39949554 -4.11337433 54.25846375 -4.11329651 53.08285522 C-4.10813522 51.84637238 -4.10297394 50.60988953 -4.09765625 49.3359375 C-4.0962413 48.07359283 -4.09482635 46.81124817 -4.09336853 45.51065063 C-4.08871078 42.15361701 -4.07972408 38.796651 -4.06866455 35.43963623 C-4.0584377 32.01445094 -4.05386818 28.58925866 -4.04882812 25.1640625 C-4.03778238 18.44268957 -4.02103194 11.72134869 -4 5 C-3.34 5 -2.68 5 -2 5 C-1.7834375 4.0409375 -1.7834375 4.0409375 -1.5625 3.0625 C-1 1 -1 1 0 0 Z " fill="#FAB596" transform="translate(110,56)"/>
<path d="M0 0 C2.6296096 2.6296096 2.27810711 3.84523432 2.33813477 7.51611328 C2.36057755 8.67136505 2.38302032 9.82661682 2.40614319 11.01687622 C2.41778 12.27201019 2.42941681 13.52714417 2.44140625 14.8203125 C2.45517807 16.10807587 2.46894989 17.39583923 2.48313904 18.72262573 C2.50868524 21.45473804 2.52435733 24.18673886 2.53540039 26.91894531 C2.55188895 30.40308926 2.61020719 33.88518167 2.67854404 37.36863899 C2.73438203 40.70662967 2.7405854 44.04438597 2.75390625 47.3828125 C2.78376114 48.62580109 2.81361603 49.86878967 2.84437561 51.14944458 C2.81349667 57.26704277 2.5608224 61.12546959 -1.54711914 65.85107422 C-2.66868722 66.9320658 -3.81009628 67.99472049 -5 69 C-5.33 68.01 -5.66 67.02 -6 66 C-4.625 64.5 -4.625 64.5 -3 63 C-2.34 63 -1.68 63 -1 63 C-0.67 42.21 -0.34 21.42 0 0 Z " fill="#FEC09D" transform="translate(199,59)"/>
<path d="M0 0 C1.98 0 3.96 0 6 0 C9.74746727 7.95334033 12.95865659 15.02848057 13 24 C12.34 24.33 11.68 24.66 11 25 C6.83868352 16.79857043 2.78577427 8.78590347 0 0 Z " fill="#E3415E" transform="translate(52,257)"/>
<path d="M0 0 C0 0.66 0 1.32 0 2 C-4.10719405 3.95129312 -7.46663555 4.26990957 -11.9934082 4.31884766 C-12.67688828 4.32889328 -13.36036835 4.3389389 -14.06455994 4.34928894 C-16.30995897 4.38002905 -18.55523926 4.39713014 -20.80078125 4.4140625 C-22.36306269 4.43278157 -23.92533411 4.45235554 -25.4875946 4.4727478 C-29.58922401 4.52399709 -33.69088616 4.56366121 -37.79266357 4.60089111 C-41.98230036 4.64097605 -46.17180174 4.69204787 -50.36132812 4.7421875 C-58.57412613 4.83886144 -66.78699135 4.92329335 -75 5 C-75.25394531 5.71027344 -75.50789062 6.42054688 -75.76953125 7.15234375 C-76.11371094 8.07144531 -76.45789063 8.99054688 -76.8125 9.9375 C-77.31716797 11.31228516 -77.31716797 11.31228516 -77.83203125 12.71484375 C-79 15 -79 15 -82 16 C-83.20882096 18.00016466 -83.20882096 18.00016466 -84 20 C-84.25 17.75 -84.25 17.75 -84 15 C-82.68945377 13.64426252 -81.35251497 12.31387169 -80 11 C-78.84002298 8.7153496 -77.94562415 6.38657524 -77 4 C-75.14933695 2.14933695 -72.10850544 2.84590979 -69.63183594 2.82641602 C-68.96672501 2.819729 -68.30161407 2.81304199 -67.61634827 2.80615234 C-66.16711025 2.79207033 -64.71784963 2.7801864 -63.26857758 2.77020454 C-60.97350436 2.75382869 -58.67859726 2.73059019 -56.38360596 2.70530701 C-49.85656999 2.63445324 -43.32946418 2.5745138 -36.80224609 2.52319336 C-32.81338647 2.49134797 -28.82471395 2.45005189 -24.83600616 2.40299797 C-23.31623972 2.38700335 -21.7964301 2.37467006 -20.2766037 2.36609077 C-18.14612424 2.3538962 -16.01608167 2.32972766 -13.88574219 2.30297852 C-12.67408386 2.29267105 -11.46242554 2.28236359 -10.21405029 2.27174377 C-6.57520127 1.96408382 -3.53344893 0 0 0 Z " fill="#C6597B" transform="translate(269,168)"/>
<path d="M0 0 C0.99 0 1.98 0 3 0 C2.38607485 6.54853492 -1.99867276 11.65442505 -5.75 16.8125 C-8.09830518 19.81367923 -8.09830518 19.81367923 -9 23 C-12 22 -12 22 -13.6875 18.9375 C-14.120625 17.968125 -14.55375 16.99875 -15 16 C-13.68 16.33 -12.36 16.66 -11 17 C-11.33 14.36 -11.66 11.72 -12 9 C-9.6875 8.3125 -9.6875 8.3125 -7 8 C-5.1875 9.4375 -5.1875 9.4375 -4 11 C-4 9.68 -4 8.36 -4 7 C-3.01 6.34 -2.02 5.68 -1 5 C-0.27034634 2.43717258 -0.27034634 2.43717258 0 0 Z " fill="#F1305A" transform="translate(179,192)"/>
<path d="M0 0 C0.33 0 0.66 0 1 0 C1 2.31 1 4.62 1 7 C1.66 7 2.32 7 3 7 C3.33 15.91 3.66 24.82 4 34 C2.68 34 1.36 34 0 34 C0 22.78 0 11.56 0 0 Z " fill="#EA3555" transform="translate(85,259)"/>
<path d="M0 0 C6.875 0.875 6.875 0.875 8 2 C10.13120519 2.10816856 12.26598441 2.14630181 14.39990234 2.15771484 C15.06822586 2.16279556 15.73654938 2.16787628 16.42512512 2.17311096 C17.88092093 2.1838355 19.33673344 2.19244746 20.79255295 2.19923019 C23.09548407 2.21098623 25.39822484 2.23043029 27.70108032 2.25234985 C34.25020023 2.31407644 40.79930212 2.36803029 47.34863281 2.40136719 C51.35051815 2.42228931 55.35205934 2.4575743 59.35374832 2.50212479 C60.88074319 2.51630728 62.40779897 2.52501229 63.93485641 2.52817917 C66.07070767 2.53307703 68.20564285 2.55620421 70.34130859 2.58349609 C71.55740814 2.59158295 72.77350769 2.5996698 74.02645874 2.60800171 C77 3 77 3 78.93569946 4.38931274 C80 6 80 6 79.6875 8.1875 C79.460625 8.785625 79.23375 9.38375 79 10 C78.64455612 9.18860062 78.28911224 8.37720123 77.92289734 7.54121399 C76.20932768 4.70000784 76.20932768 4.70000784 72.98176575 4.36076355 C71.7448851 4.35410172 70.50800446 4.34743988 69.23364258 4.34057617 C68.55045456 4.33009247 67.86726654 4.31960876 67.16337585 4.30880737 C64.90663439 4.28002006 62.65142368 4.28635219 60.39453125 4.29296875 C58.82938205 4.27985574 57.26424979 4.26455273 55.69914246 4.24714661 C51.58089299 4.20723629 47.46308558 4.19710238 43.34466553 4.19311523 C39.14174945 4.18379501 34.93909435 4.14638858 30.73632812 4.11132812 C22.49088072 4.04669106 14.24568891 4.01350133 6 4 C6 3.34 6 2.68 6 2 C3.03 1.505 3.03 1.505 0 1 C0 0.67 0 0.34 0 0 Z " fill="#CA5176" transform="translate(69,168)"/>
<path d="M0 0 C1.32 0 2.64 0 4 0 C4 6.6 4 13.2 4 20 C3.34 20 2.68 20 2 20 C2 21.98 2 23.96 2 26 C1.34 26 0.68 26 0 26 C0 17.42 0 8.84 0 0 Z " fill="#F03257" transform="translate(135,258)"/>
<path d="M0 0 C1.32 0 2.64 0 4 0 C4 0.99 4 1.98 4 3 C4.763125 2.95875 5.52625 2.9175 6.3125 2.875 C9 3 9 3 12 5 C14.93184029 5.3297922 14.93184029 5.3297922 18.30737305 5.31884766 C20.25905647 5.34865219 20.25905647 5.34865219 22.25016785 5.37905884 C23.67068309 5.39093531 25.09120012 5.40259816 26.51171875 5.4140625 C27.96475833 5.43277235 29.41778703 5.45234562 30.87080383 5.4727478 C34.69297877 5.52409464 38.51518895 5.56370653 42.33752441 5.60089111 C46.238777 5.64091487 50.1398827 5.69201461 54.04101562 5.7421875 C61.69390967 5.83897694 69.34687472 5.92337189 77 6 C77 6.33 77 6.66 77 7 C54.23 7 31.46 7 8 7 C8 6.34 8 5.68 8 5 C7.05125 4.731875 6.1025 4.46375 5.125 4.1875 C2 3 2 3 0 0 Z " fill="#FEB69A" transform="translate(110,124)"/>
<path d="M0 0 C0.99 0.33 1.98 0.66 3 1 C2.195625 1.763125 1.39125 2.52625 0.5625 3.3125 C-2.16799024 5.79430898 -2.16799024 5.79430898 -3 9 C-3.66 9 -4.32 9 -5 9 C-4.89238408 16.36288456 -4.77972766 23.72567387 -4.66066074 31.08838272 C-4.60552929 34.50729472 -4.55212523 37.92621542 -4.50268555 41.34521484 C-4.44575324 45.27710613 -4.38127763 49.20885636 -4.31640625 53.140625 C-4.29969376 54.36678528 -4.28298126 55.59294556 -4.26576233 56.85626221 C-4.24581711 57.99714294 -4.22587189 59.13802368 -4.20532227 60.31347656 C-4.18977798 61.31719299 -4.1742337 62.32090942 -4.15821838 63.3550415 C-4.01699693 65.71586004 -3.66949144 67.73991331 -3 70 C-3.99 69.67 -4.98 69.34 -6 69 C-6.04639333 61.1329647 -6.08190472 53.2659616 -6.10362434 45.39882374 C-6.11405004 41.74556957 -6.12818695 38.09240919 -6.15087891 34.43920898 C-6.17265076 30.91195952 -6.18457776 27.38480012 -6.18975449 23.85748863 C-6.19523412 21.86059471 -6.21084016 19.86373689 -6.22659302 17.86689758 C-6.22674408 16.64600937 -6.22689514 15.42512115 -6.22705078 14.16723633 C-6.231492 13.09468094 -6.23593323 12.02212555 -6.24050903 10.91706848 C-5.9924104 7.90794779 -5.26950019 5.72306082 -4 3 C-3.34 3 -2.68 3 -2 3 C-2 2.34 -2 1.68 -2 1 C-1.34 0.67 -0.68 0.34 0 0 Z " fill="#E84858" transform="translate(111,52)"/>
<path d="M0 0 C1.65 0 3.3 0 5 0 C6 1 6 1 6.11352539 3.22485352 C6.10828857 4.18319092 6.10305176 5.14152832 6.09765625 6.12890625 C6.09282227 7.68061523 6.09282227 7.68061523 6.08789062 9.26367188 C6.07951172 10.35228516 6.07113281 11.44089844 6.0625 12.5625 C6.05798828 13.65498047 6.05347656 14.74746094 6.04882812 15.87304688 C6.03699826 18.58208495 6.02051543 21.29101599 6 24 C5.34 24 4.68 24 4 24 C4 17.07 4 10.14 4 3 C3.01 3 2.02 3 1 3 C1 9.93 1 16.86 1 24 C0.67 24 0.34 24 0 24 C0 16.08 0 8.16 0 0 Z " fill="#D9596B" transform="translate(109,256)"/>
<path d="M0 0 C0 3 0 3 -0.8125 5.625 C-1.05969148 10.0744467 0.55964348 12.34351598 2.87109375 16.046875 C4 18 4 18 4 20 C4.66 20 5.32 20 6 20 C6.144375 19.21625 6.28875 18.4325 6.4375 17.625 C7 15 7 15 8 13 C8.99 13.33 9.98 13.66 11 14 C8.525 18.455 8.525 18.455 6 23 C0.04879926 20.02439963 -2.55592603 15.09461757 -5 9 C-4.74222108 5.04512863 -2.7687058 2.7687058 0 0 Z " fill="#77AFC0" transform="translate(174,207)"/>
<path d="M0 0 C0.33 0 0.66 0 1 0 C1.05001078 4.90721202 1.08600384 9.8142707 1.10986328 14.72167969 C1.11982596 16.38576853 1.13340102 18.04984031 1.15087891 19.71386719 C1.24944566 29.35021689 1.08615867 38.53114452 -1 48 C-4.31395986 49.08784335 -4.83580335 49.07262544 -8.25 47.5625 C-9.1575 47.046875 -10.065 46.53125 -11 46 C-11 45.67 -11 45.34 -11 45 C-5.25 44.875 -5.25 44.875 -3 46 C-1.26039692 35.66254669 -0.60330804 25.58198378 -0.375 15.125 C-0.33668088 13.64711595 -0.29762196 12.1692509 -0.2578125 10.69140625 C-0.16338718 7.12778129 -0.07882989 3.5640082 0 0 Z " fill="#FEC9A1" transform="translate(235,74)"/>
<path d="M0 0 C2.8203125 -0.29296875 2.8203125 -0.29296875 6.125 -0.1875 C7.76855469 -0.14689453 7.76855469 -0.14689453 9.4453125 -0.10546875 C10.28835937 -0.07066406 11.13140625 -0.03585937 12 0 C12 0.33 12 0.66 12 1 C8.37 1 4.74 1 1 1 C1 5.29 1 9.58 1 14 C2.65 14 4.3 14 6 14 C6 14.33 6 14.66 6 15 C1.38 15 -3.24 15 -8 15 C-9.35439668 12.29120665 -9.06501451 9.99066732 -9 7 C-8.67 7 -8.34 7 -8 7 C-7.67 8.65 -7.34 10.3 -7 12 C-6.34 11.34 -5.68 10.68 -5 10 C-5 10.66 -5 11.32 -5 12 C-3.68 12 -2.36 12 -1 12 C-1.09539062 11.38511719 -1.19078125 10.77023437 -1.2890625 10.13671875 C-1.39992187 9.32847656 -1.51078125 8.52023437 -1.625 7.6875 C-1.74101562 6.88699219 -1.85703125 6.08648437 -1.9765625 5.26171875 C-2 3 -2 3 0 0 Z " fill="#F5CDA9" transform="translate(234,279)"/>
<path d="M0 0 C2.1875 -0.5 2.1875 -0.5 5 0 C8.27618728 3.72995283 10.53282451 8.01679474 11 13 C10.01 13.66 9.02 14.32 8 15 C6.65828736 13.06829319 5.32687117 11.12943124 4 9.1875 C3.2575 8.10855469 2.515 7.02960938 1.75 5.91796875 C0 3 0 3 0 0 Z " fill="#E73B56" transform="translate(279,257)"/>
<path d="M0 0 C0.66 0 1.32 0 2 0 C4.5915262 5.93891422 5.40368295 10.54107286 5 17 C3.35 17 1.7 17 0 17 C0 11.39 0 5.78 0 0 Z " fill="#E96263" transform="translate(51,276)"/>
<path d="M0 0 C2.71928517 0.37507382 3.84218661 0.84218661 5.8125 2.8125 C7 5 7 5 6.9375 7 C5.68876876 9.66395998 4.32874406 11.2035403 2 13 C-0.25 12.75 -0.25 12.75 -2 12 C-1.505 11.2575 -1.505 11.2575 -1 10.5 C0.43636358 6.90909106 0.12851462 3.85543873 0 0 Z " fill="#D95365" transform="translate(183,281)"/>
<path d="M0 0 C0.66 0 1.32 0 2 0 C2.05406122 1.93719378 2.09282025 3.87481921 2.125 5.8125 C2.14820312 6.89144531 2.17140625 7.97039062 2.1953125 9.08203125 C2 12 2 12 0 15 C-2.625 15.1875 -2.625 15.1875 -5 15 C-3.97137215 9.55432314 -2.75385216 4.88182883 0 0 Z " fill="#EA6969" transform="translate(74,278)"/>
<path d="M0 0 C1.9453125 -0.29296875 1.9453125 -0.29296875 4.125 -0.1875 C5.40375 -0.125625 6.6825 -0.06375 8 0 C8 0.66 8 1.32 8 2 C6.02 2.33 4.04 2.66 2 3 C2 10.26 2 17.52 2 25 C1.34 25.33 0.68 25.66 0 26 C-1.88276047 22.23447905 -1.4809045 17.71369225 -1.6875 13.5625 C-1.74744141 12.59505859 -1.80738281 11.62761719 -1.86914062 10.63085938 C-1.91619141 9.70208984 -1.96324219 8.77332031 -2.01171875 7.81640625 C-2.05772217 6.96506104 -2.10372559 6.11371582 -2.15112305 5.23657227 C-2 3 -2 3 0 0 Z " fill="#D8C09B" transform="translate(101,256)"/>
<path d="M0 0 C2.57117763 0.93626986 3.97901507 2.16805271 5.92578125 4.08203125 C6.55097656 4.67628906 7.17617187 5.27054687 7.8203125 5.8828125 C9.11328125 7.76953125 9.11328125 7.76953125 8.8125 10 C8.58175781 10.58394531 8.35101563 11.16789062 8.11328125 11.76953125 C4.63091865 11.51157846 3.92519414 10.5539192 1.55078125 7.83203125 C0.74640625 6.82140625 -0.05796875 5.81078125 -0.88671875 4.76953125 C-1.87671875 4.10953125 -2.86671875 3.44953125 -3.88671875 2.76953125 C-3.88671875 2.10953125 -3.88671875 1.44953125 -3.88671875 0.76953125 C-1.88671875 -0.23046875 -1.88671875 -0.23046875 0 0 Z " fill="#E24F60" transform="translate(159.88671875,256.23046875)"/>
<path d="M0 0 C2.49977543 3.33303391 3 4.73303602 3 9 C2.01 9.66 1.02 10.32 0 11 C-1.485 8.03 -1.485 8.03 -3 5 C-6.7952131 6.49097658 -8.61042731 8.75700849 -11 12 C-11.66 11.67 -12.32 11.34 -13 11 C-11.22092694 5.66278083 -5.83550927 0 0 0 Z " fill="#E5C6A3" transform="translate(181,256)"/>
<path d="M0 0 C2.75433205 0.2849309 4.08534804 1.06458771 6.3125 2.75 C8 5 8 5 7.9375 7.5625 C6.95945432 10.10541876 6.15706712 11.36062899 4 13 C3.34 13 2.68 13 2 13 C1.17361624 10.10765685 1 8.11257569 1 5 C0.06716704 2.79932579 0.06716704 2.79932579 -1 1 C-0.67 0.67 -0.34 0.34 0 0 Z " fill="#DD566A" transform="translate(182,256)"/>
<path d="M0 0 C2 2 2 2 2.1875 5 C2 8 2 8 1 10 C-0.65 10 -2.3 10 -4 10 C-4.12375 8.329375 -4.12375 8.329375 -4.25 6.625 C-4.57873787 2.94246056 -4.57873787 2.94246056 -7.0625 1.5625 C-7.701875 1.376875 -8.34125 1.19125 -9 1 C-5.98675805 -0.50662097 -3.31713623 -0.17770373 0 0 Z " fill="#D37179" transform="translate(257,256)"/>
<path d="M0 0 C0.66 0 1.32 0 2 0 C2.05404449 2.75026417 2.09369306 5.49946203 2.125 8.25 C2.15013672 9.41595703 2.15013672 9.41595703 2.17578125 10.60546875 C2.23902298 18.00475072 2.23902298 18.00475072 0 21 C-3.6441774 23.4294516 -5.71241272 23.16179575 -10 23 C-9.01 22.67 -8.02 22.34 -7 22 C-6.67 21.34 -6.34 20.68 -6 20 C-4.68 20 -3.36 20 -2 20 C-0.89210465 15.94691667 -0.66268733 11.92888626 -0.4375 7.75 C-0.39431641 7.00492187 -0.35113281 6.25984375 -0.30664062 5.4921875 C-0.20103275 3.661651 -0.10005799 1.83084824 0 0 Z " fill="#E0C79F" transform="translate(125,263)"/>
<path d="M0 0 C1.65 0 3.3 0 5 0 C4.36934243 3.21852831 3.21979305 5.50801069 1.4375 8.25 C0.98246094 8.95640625 0.52742188 9.6628125 0.05859375 10.390625 C-0.46541016 11.18726563 -0.46541016 11.18726563 -1 12 C-2.32 11.67 -3.64 11.34 -5 11 C-4.67 9.02 -4.34 7.04 -4 5 C-3.34 5 -2.68 5 -2 5 C-2 4.34 -2 3.68 -2 3 C-1.34 3 -0.68 3 0 3 C0 2.01 0 1.02 0 0 Z " fill="#E23E59" transform="translate(307,257)"/>
<path d="M0 0 C0.515625 0.391875 1.03125 0.78375 1.5625 1.1875 C1.5625 3.8275 1.5625 6.4675 1.5625 9.1875 C1.2325 9.1875 0.9025 9.1875 0.5625 9.1875 C0.2325 6.5475 -0.0975 3.9075 -0.4375 1.1875 C-2.80651825 1.59595142 -4.1207153 1.84971805 -5.79296875 3.6328125 C-7.76166834 5.49395843 -9.35091792 5.99558023 -11.9375 6.75 C-14.9633466 7.64262475 -16.7501529 8.39593526 -19.4375 10.1875 C-21.625 9.8125 -21.625 9.8125 -23.4375 9.1875 C-14.335517 3.99203258 -14.335517 3.99203258 -9.4375 2.1875 C-8.261875 1.61 -7.08625 1.0325 -5.875 0.4375 C-2.4375 -0.8125 -2.4375 -0.8125 0 0 Z " fill="#FDB998" transform="translate(233.4375,60.8125)"/>
<path d="M0 0 C1.32 0 2.64 0 4 0 C4 11.22 4 22.44 4 34 C3.67 34 3.34 34 3 34 C2.67 25.75 2.34 17.5 2 9 C1.34 8.67 0.68 8.34 0 8 C0 5.36 0 2.72 0 0 Z " fill="#ED3B54" transform="translate(209,258)"/>
<path d="M0 0 C0.99 0.33 1.98 0.66 3 1 C2.42073787 4.53819573 1.15676523 6.25028243 -1.375 8.75 C-1.98085937 9.36359375 -2.58671875 9.9771875 -3.2109375 10.609375 C-5 12 -5 12 -8 12 C-7.52354792 7.71193127 -6.34097516 5.73352513 -3 3 C-2.34 3 -1.68 3 -1 3 C-0.67 2.01 -0.34 1.02 0 0 Z " fill="#E75E62" transform="translate(166,282)"/>
<path d="M0 0 C0.33 0 0.66 0 1 0 C1 2.31 1 4.62 1 7 C2.32 7.33 3.64 7.66 5 8 C2.27076612 8.0270817 -0.45819637 8.04687847 -3.1875 8.0625 C-3.95642578 8.07087891 -4.72535156 8.07925781 -5.51757812 8.08789062 C-9.48526789 8.10491934 -13.12571234 7.98604115 -17 7 C-17 6.34 -17 5.68 -17 5 C-11.39 5 -5.78 5 0 5 C0 3.35 0 1.7 0 0 Z " fill="#EDB39B" transform="translate(252,259)"/>
<path d="M0 0 C0.33 0 0.66 0 1 0 C1 5.28 1 10.56 1 16 C-0.32 16 -1.64 16 -3 16 C-3.08133791 14.08404032 -3.13934367 12.16708068 -3.1875 10.25 C-3.22230469 9.18265625 -3.25710938 8.1153125 -3.29296875 7.015625 C-2.97032505 3.69454586 -2.28826707 2.37472553 0 0 Z " fill="#E52F54" transform="translate(296,277)"/>
<path d="M0 0 C0.33 0 0.66 0 1 0 C1 10.56 1 21.12 1 32 C3.31 32 5.62 32 8 32 C9.67557379 32.28520405 11.34817245 32.59955696 13 33 C13 33.33 13 33.66 13 34 C8.71 34 4.42 34 0 34 C-0.86420167 29.67899163 -1.05094245 26.50710413 -0.87890625 22.16796875 C-0.83056641 20.87568359 -0.78222656 19.58339844 -0.73242188 18.25195312 C-0.67590949 16.89713006 -0.61926724 15.54231241 -0.5625 14.1875 C-0.50922394 12.81317193 -0.45648399 11.43882297 -0.40429688 10.06445312 C-0.2748033 6.70939235 -0.13984284 3.35464273 0 0 Z " fill="#EBD3AB" transform="translate(200,260)"/>
<path d="M0 0 C0.99 0.33 1.98 0.66 3 1 C3.309375 1.78375 3.61875 2.5675 3.9375 3.375 C5.20392856 6.5038235 6.13861567 7.2639332 9 9 C12.03268887 9.78628026 12.03268887 9.78628026 15.25 10.1875 C16.32765625 10.34605469 17.4053125 10.50460937 18.515625 10.66796875 C19.33546875 10.77753906 20.1553125 10.88710938 21 11 C20.67 11.66 20.34 12.32 20 13 C13.70258501 13.44981536 9.19904349 12.76125492 4 9 C0 4.1 0 4.1 0 0 Z " fill="#E1C7AB" transform="translate(101,282)"/>
<path d="M0 0 C1.79244141 0.01740234 1.79244141 0.01740234 3.62109375 0.03515625 C5.41740234 0.04869141 5.41740234 0.04869141 7.25 0.0625 C8.17683594 0.07410156 9.10367188 0.08570313 10.05859375 0.09765625 C5.82305516 2.92134864 3.93153121 2.09765625 -1.94140625 2.09765625 C-2.27140625 10.01765625 -2.60140625 17.93765625 -2.94140625 26.09765625 C-3.27140625 26.09765625 -3.60140625 26.09765625 -3.94140625 26.09765625 C-3.97027376 21.95183738 -3.98815952 17.80604409 -4.00390625 13.66015625 C-4.01228516 12.47615234 -4.02066406 11.29214844 -4.02929688 10.07226562 C-4.03251953 8.94755859 -4.03574219 7.82285156 -4.0390625 6.6640625 C-4.04429932 5.62193604 -4.04953613 4.57980957 -4.05493164 3.50610352 C-3.88726944 -0.05085905 -3.61378301 0.11997952 0 0 Z " fill="#CEAD97" transform="translate(45.94140625,255.90234375)"/>
<path d="M0 0 C4.62 0 9.24 0 14 0 C12.68 0.33 11.36 0.66 10 1 C10.66 2.98 11.32 4.96 12 7 C11.01 6.34 10.02 5.68 9 5 C9 4.34 9 3.68 9 3 C7.02 3.33 5.04 3.66 3 4 C3 4.66 3 5.32 3 6 C1.68 5.34 0.36 4.68 -1 4 C-0.67 2.68 -0.34 1.36 0 0 Z " fill="#DFB294" transform="translate(269,256)"/>
<path d="M0 0 C1.3606152 0.03962957 2.72061697 0.11085657 4.078125 0.2109375 C4.77550781 0.23800781 5.47289062 0.26507813 6.19140625 0.29296875 C7.90498205 0.36338967 9.61695802 0.47100837 11.328125 0.5859375 C11.328125 0.9159375 11.328125 1.2459375 11.328125 1.5859375 C9.678125 1.5859375 8.028125 1.5859375 6.328125 1.5859375 C5.998125 2.5759375 5.668125 3.5659375 5.328125 4.5859375 C5.328125 3.9259375 5.328125 3.2659375 5.328125 2.5859375 C2.09557271 2.47251461 0.28010661 2.4205465 -2.671875 3.5859375 C-5.46657644 6.65227347 -7.59226009 10.00510057 -9.671875 13.5859375 C-10.331875 13.2559375 -10.991875 12.9259375 -11.671875 12.5859375 C-11.671875 11.9259375 -11.671875 11.2659375 -11.671875 10.5859375 C-10.33854167 9.25260417 -9.00520833 7.91927083 -7.671875 6.5859375 C-7.1253125 5.55726563 -6.57875 4.52859375 -6.015625 3.46875 C-3.671875 0.5859375 -3.671875 0.5859375 0 0 Z " fill="#CF9D93" transform="translate(300.671875,255.4140625)"/>
<path d="M0 0 C2.97 0.495 2.97 0.495 6 1 C6 1.66 6 2.32 6 3 C7.65 3 9.3 3 11 3 C11 3.33 11 3.66 11 4 C9.35 4.33 7.7 4.66 6 5 C6.75150023 8.27773504 6.75150023 8.27773504 10 10 C9.67 10.99 9.34 11.98 9 13 C8.34 13 7.68 13 7 13 C5.52734375 10.91796875 5.52734375 10.91796875 3.9375 8.1875 C3.41027344 7.29417969 2.88304688 6.40085938 2.33984375 5.48046875 C1 3 1 3 0 0 Z " fill="#7DACBA" transform="translate(69,169)"/>
<path d="M0 0 C2.50037734 2.17424117 3.43628586 3.73045798 4 7 C6.64 7 9.28 7 12 7 C12.33 6.34 12.66 5.68 13 5 C13 5.99 13 6.98 13 8 C14.32 8.33 15.64 8.66 17 9 C14.72923158 9.02699725 12.45837179 9.04639453 10.1875 9.0625 C8.29064453 9.07990234 8.29064453 9.07990234 6.35546875 9.09765625 C3 9 3 9 0 8 C0 5.36 0 2.72 0 0 Z " fill="#E1AE96" transform="translate(56,285)"/>
<path d="M0 0 C0.66 0.66 1.32 1.32 2 2 C2.99 2 3.98 2 5 2 C4.2575 2.70125 3.515 3.4025 2.75 4.125 C0.02182777 6.97718006 -1.91302954 9.6763063 -4 13 C-7.16115776 11.63016497 -7.9927092 11.0109362 -10 8 C-7.525 8.495 -7.525 8.495 -5 9 C-4.67 8.34 -4.34 7.68 -4 7 C-3.34 7 -2.68 7 -2 7 C-1.855625 6.21625 -1.71125 5.4325 -1.5625 4.625 C-1 2 -1 2 0 0 Z " fill="#F9D29D" transform="translate(161,281)"/>
<path d="M0 0 C0.598125 0.20625 1.19625 0.4125 1.8125 0.625 C1.1525 2.275 0.4925 3.925 -0.1875 5.625 C1.1325 5.955 2.4525 6.285 3.8125 6.625 C3.8125 7.615 3.8125 8.605 3.8125 9.625 C-0.43596075 9.15294881 -2.45569288 6.73622478 -5.1875 3.625 C-5.1875 2.965 -5.1875 2.305 -5.1875 1.625 C-2.1875 -0.375 -2.1875 -0.375 0 0 Z " fill="#EF4D5F" transform="translate(178.1875,272.375)"/>
<path d="M0 0 C4.39932915 0.36661076 6.8642502 1.94900019 10 5 C11.3125 7.75 11.3125 7.75 12 10 C10.68127338 9.60348083 9.37002899 9.18201309 8.0625 8.75 C7.33160156 8.51796875 6.60070312 8.2859375 5.84765625 8.046875 C4 7 4 7 3.375 4.96875 C3.25125 4.3190625 3.1275 3.669375 3 3 C1.0162233 1.71563266 1.0162233 1.71563266 -1 1 C-0.67 0.67 -0.34 0.34 0 0 Z " fill="#D6426B" transform="translate(263,13)"/>
<path d="M0 0 C4.29 0 8.58 0 13 0 C13 0.33 13 0.66 13 1 C11.35 1 9.7 1 8 1 C8 6.28 8 11.56 8 17 C7.67 17 7.34 17 7 17 C7 12.38 7 7.76 7 3 C4.69 3 2.38 3 0 3 C0 2.01 0 1.02 0 0 Z " fill="#E7BF9B" transform="translate(200,256)"/>
<path d="M0 0 C0.66 0.33 1.32 0.66 2 1 C0.34950071 6.58630528 0.34950071 6.58630528 -1.53125 8.8125 C-3.44986537 11.67001225 -3.50201206 13.83702192 -3.6875 17.25 C-3.75324219 18.32765625 -3.81898438 19.4053125 -3.88671875 20.515625 C-3.92410156 21.33546875 -3.96148437 22.1553125 -4 23 C-2.68 23.33 -1.36 23.66 0 24 C-1.65 24 -3.3 24 -5 24 C-5.05428973 21.77110504 -5.09292338 19.54182529 -5.125 17.3125 C-5.15980469 15.45044922 -5.15980469 15.45044922 -5.1953125 13.55078125 C-4.89783668 8.1426709 -2.84236591 4.52194577 0 0 Z " fill="#E75B65" transform="translate(297,270)"/>
<path d="M0 0 C0.66 0 1.32 0 2 0 C2 5.61 2 11.22 2 17 C4.31 17 6.62 17 9 17 C9 17.66 9 18.32 9 19 C6.36 19 3.72 19 1 19 C-0.16306443 15.45049966 0.07634951 12.44176052 0.4375 8.75 C0.53933594 7.67234375 0.64117187 6.5946875 0.74609375 5.484375 C0.82988281 4.66453125 0.91367188 3.8446875 1 3 C0.34 2.67 -0.32 2.34 -1 2 C-0.67 1.34 -0.34 0.68 0 0 Z " fill="#E9B595" transform="translate(75,275)"/>
<path d="M0 0 C0.33 0 0.66 0 1 0 C1.08796382 3.66651247 1.14071247 7.33274918 1.1875 11 C1.22520508 12.54494141 1.22520508 12.54494141 1.26367188 14.12109375 C1.32462779 20.50114621 0.66268638 25.18541977 -2 31 C-3.231394 27.30581799 -2.64432764 24.7943739 -2 21 C-1.34 21 -0.68 21 0 21 C0 14.07 0 7.14 0 0 Z " fill="#D25F75" transform="translate(139,257)"/>
<path d="M0 0 C1.32 0 2.64 0 4 0 C4 0.66 4 1.32 4 2 C4.99 2 5.98 2 7 2 C7 2.66 7 3.32 7 4 C7.825 4.2475 8.65 4.495 9.5 4.75 C13.52373471 6.18704811 17.21979024 8.02354515 21 10 C19 11 19 11 16.3984375 10.22265625 C15.40070313 9.83980469 14.40296875 9.45695312 13.375 9.0625 C11.87066406 8.49208984 11.87066406 8.49208984 10.3359375 7.91015625 C9.56507813 7.60980469 8.79421875 7.30945313 8 7 C8 6.34 8 5.68 8 5 C7.4225 4.9175 6.845 4.835 6.25 4.75 C3.3840696 3.79468987 2.0009236 2.21530827 0 0 Z " fill="#F17073" transform="translate(209,112)"/>
<path d="M0 0 C4.51790439 2.19789943 6.27516103 4.27938809 8 9 C8.1875 12.875 8.1875 12.875 8 16 C7.34 16.33 6.68 16.66 6 17 C5.731875 15.80375 5.46375 14.6075 5.1875 13.375 C4.25555749 9.61394629 2.83191278 6.42488042 1 3 C0.67 2.01 0.34 1.02 0 0 Z " fill="#6CADBF" transform="translate(279,32)"/>
<path d="M0 0 C0.99 0.33 1.98 0.66 3 1 C3.309375 1.804375 3.61875 2.60875 3.9375 3.4375 C4.75916162 6.09047712 4.75916162 6.09047712 6.875 7.25 C8.90387118 7.96607218 10.89663375 8.54927866 13 9 C13 10.32 13 11.64 13 13 C9.23349341 12.432908 7.45745882 10.86223321 4.8125 8.1875 C3.77029297 7.15689453 3.77029297 7.15689453 2.70703125 6.10546875 C0.98948387 3.98702931 0.40089227 2.66264268 0 0 Z " fill="#E8CBA4" transform="translate(168,282)"/>
<path d="M0 0 C0.99 0 1.98 0 3 0 C2.40815684 6.31299375 -1.47964707 11.74399519 -6 16 C-6 14.68 -6 13.36 -6 12 C-5.34 12 -4.68 12 -4 12 C-4.061875 11.21625 -4.12375 10.4325 -4.1875 9.625 C-4.125625 8.75875 -4.06375 7.8925 -4 7 C-3.01 6.34 -2.02 5.68 -1 5 C-0.27034634 2.43717258 -0.27034634 2.43717258 0 0 Z " fill="#C65A7C" transform="translate(179,192)"/>
<path d="M0 0 C3.7102381 3.45435961 6.83840258 6.57603873 7.1875 11.8125 C7.125625 12.534375 7.06375 13.25625 7 14 C6.67 13.01 6.34 12.02 6 11 C4.35 10.67 2.7 10.34 1 10 C1.020625 9.278125 1.04125 8.55625 1.0625 7.8125 C1.00179441 5.08074862 0.60741465 2.65743909 0 0 Z " fill="#9796AC" transform="translate(146,175)"/>
<path d="M0 0 C0.99 0 1.98 0 3 0 C3.33 3.63 3.66 7.26 4 11 C2.68 11 1.36 11 0 11 C0 7.37 0 3.74 0 0 Z " fill="#E73557" transform="translate(236,282)"/>
<path d="M0 0 C3.81270344 1.48973181 5.41914866 3.58663826 7.6875 6.9375 C8.28949219 7.81277344 8.89148438 8.68804687 9.51171875 9.58984375 C11 12 11 12 12 15 C11.01 15.495 11.01 15.495 10 16 C8.3305554 13.52266346 6.66433808 11.04326339 5 8.5625 C4.28457031 7.50192383 4.28457031 7.50192383 3.5546875 6.41992188 C3.10351562 5.74638672 2.65234375 5.07285156 2.1875 4.37890625 C1.76855469 3.7557251 1.34960938 3.13254395 0.91796875 2.49047852 C0 1 0 1 0 0 Z " fill="#E0CDA6" transform="translate(270,262)"/>
<path d="M0 0 C1.65 0 3.3 0 5 0 C5 2.31 5 4.62 5 7 C3.35 7 1.7 7 0 7 C0 4.69 0 2.38 0 0 Z " fill="#E34B59" transform="translate(235,266)"/>
<path d="M0 0 C3.08089673 2.77280706 4.68775452 5.06326356 6 9 C5.38125 8.79375 4.7625 8.5875 4.125 8.375 C3.42375 8.25125 2.7225 8.1275 2 8 C1.34 8.66 0.68 9.32 0 10 C-2.21538462 4.58461538 -2.21538462 4.58461538 -1.125 1.625 C-0.75375 1.08875 -0.3825 0.5525 0 0 Z " fill="#FDD7A0" transform="translate(281,263)"/>
<path d="M0 0 C2 1 2 1 2.61889648 2.75097656 C3.03509883 5.20713029 3.11284638 7.49319308 3.09765625 9.984375 C3.09282227 11.38623047 3.09282227 11.38623047 3.08789062 12.81640625 C3.07951172 13.78449219 3.07113281 14.75257812 3.0625 15.75 C3.05798828 16.73355469 3.05347656 17.71710937 3.04882812 18.73046875 C3.03706483 21.15370791 3.02062684 23.57682273 3 26 C2.67 26 2.34 26 2 26 C1.98018066 25.44538086 1.96036133 24.89076172 1.93994141 24.31933594 C1.84442349 21.79576307 1.73485433 19.27298776 1.625 16.75 C1.5940625 15.87730469 1.563125 15.00460938 1.53125 14.10546875 C1.49257813 13.26113281 1.45390625 12.41679688 1.4140625 11.546875 C1.3826416 10.77182617 1.3512207 9.99677734 1.31884766 9.19824219 C1.1140458 6.93893054 1.1140458 6.93893054 -0.08837891 4.90332031 C-1 3 -1 3 0 0 Z " fill="#DD355D" transform="translate(273,22)"/>
<path d="M0 0 C0.66 0.33 1.32 0.66 2 1 C2 1.66 2 2.32 2 3 C3.32 3.66 4.64 4.32 6 5 C6 5.33 6 5.66 6 6 C4.35 6 2.7 6 1 6 C0.67 7.65 0.34 9.3 0 11 C-0.99 10.01 -1.98 9.02 -3 8 C-2.505 7.05125 -2.01 6.1025 -1.5 5.125 C0.14424369 2.27721834 0.14424369 2.27721834 0 0 Z " fill="#FBD49C" transform="translate(109,280)"/>
<path d="M0 0 C0.66 0.33 1.32 0.66 2 1 C1.38348417 2.6490302 0.75652258 4.29415841 0.125 5.9375 C-0.22304687 6.85402344 -0.57109375 7.77054687 -0.9296875 8.71484375 C-2 11 -2 11 -4 12 C-4.33 9.03 -4.66 6.06 -5 3 C-4.67 3.66 -4.34 4.32 -4 5 C-2.29159719 3.36587557 -1.06546953 2.13093906 0 0 Z " fill="#EAB292" transform="translate(69,269)"/>
<path d="M0 0 C2.625 -0.1875 2.625 -0.1875 5 0 C5 0.66 5 1.32 5 2 C3.68 2.33 2.36 2.66 1 3 C0.67 4.32 0.34 5.64 0 7 C-0.66 7 -1.32 7 -2 7 C-2.33 8.65 -2.66 10.3 -3 12 C-3.66 12 -4.32 12 -5 12 C-4.54738642 10.56068883 -4.08767021 9.12361001 -3.625 7.6875 C-3.24214844 6.48673828 -3.24214844 6.48673828 -2.8515625 5.26171875 C-2 3 -2 3 0 0 Z " fill="#DAC3A7" transform="translate(75,256)"/>
<path d="M0 0 C1.32 0.66 2.64 1.32 4 2 C4 3.32 4 4.64 4 6 C3.01 6.66 2.02 7.32 1 8 C0.01 6.02 -0.98 4.04 -2 2 C-1.34 1.34 -0.68 0.68 0 0 Z " fill="#FDCC9B" transform="translate(180,259)"/>
<path d="M0 0 C0.99 0.33 1.98 0.66 3 1 C0.525 5.455 0.525 5.455 -2 10 C-3.32 9.34 -4.64 8.68 -6 8 C-4.68 7.67 -3.36 7.34 -2 7 C-1.855625 6.21625 -1.71125 5.4325 -1.5625 4.625 C-1 2 -1 2 0 0 Z " fill="#7AB0C7" transform="translate(182,220)"/>
<path d="M0 0 C0.33 0 0.66 0 1 0 C0.67 4.95 0.34 9.9 0 15 C-1.65 15.33 -3.3 15.66 -5 16 C-5 15.01 -5 14.02 -5 13 C-4.01 12.67 -3.02 12.34 -2 12 C-1.34 8.04 -0.68 4.08 0 0 Z " fill="#F1636A" transform="translate(235,110)"/>
<path d="M0 0 C1.32 0 2.64 0 4 0 C4 2.31 4 4.62 4 7 C2.68 7 1.36 7 0 7 C0 4.69 0 2.38 0 0 Z " fill="#DF3551" transform="translate(250,274)"/>
<path d="M0 0 C1.32 0 2.64 0 4 0 C4 6.6 4 13.2 4 20 C3.67 20 3.34 20 3 20 C2.67 14.06 2.34 8.12 2 2 C1.34 2 0.68 2 0 2 C0 1.34 0 0.68 0 0 Z " fill="#D5354D" transform="translate(135,258)"/>
<path d="M0 0 C0.928125 0.165 1.85625 0.33 2.8125 0.5 C5.95621353 1.07748388 5.95621353 1.07748388 9 1 C8.01 2.98 7.02 4.96 6 7 C3 6 3 6 1.3125 2.9375 C0.879375 1.968125 0.44625 0.99875 0 0 Z " fill="#C84271" transform="translate(164,208)"/>
<path d="M0 0 C1.15154588 2.82652171 1.07817396 3.81325108 -0.125 6.6875 C-2 9 -2 9 -4.6875 9.8125 C-5.450625 9.874375 -6.21375 9.93625 -7 10 C-6.21718695 8.66144944 -5.42348123 7.32926356 -4.625 6 C-4.18414062 5.2575 -3.74328125 4.515 -3.2890625 3.75 C-2.86367188 3.1725 -2.43828125 2.595 -2 2 C-1.34 2 -0.68 2 0 2 C0 1.34 0 0.68 0 0 Z " fill="#94A2AF" transform="translate(276,158)"/>
<path d="M0 0 C0.7734375 0.61875 0.7734375 0.61875 1.5625 1.25 C1.2325 1.91 0.9025 2.57 0.5625 3.25 C-1.42732206 3.77192054 -3.41934507 4.28830786 -5.42578125 4.7421875 C-7.62058423 5.29621544 -9.48325096 6.11002139 -11.4375 7.25 C-10.40745913 4.0454284 -8.82911457 2.61672309 -6.0625 0.875 C-2.4375 -0.75 -2.4375 -0.75 0 0 Z " fill="#F05866" transform="translate(232.4375,57.75)"/>
<path d="M0 0 C2.64 0.66 5.28 1.32 8 2 C8 2.33 8 2.66 8 3 C6.02 3 4.04 3 2 3 C2 4.32 2 5.64 2 7 C1.34 7 0.68 7 0 7 C0 8.65 0 10.3 0 12 C-0.33 12 -0.66 12 -1 12 C-1.02698189 10.37509046 -1.04638757 8.75005367 -1.0625 7.125 C-1.07410156 6.22007812 -1.08570312 5.31515625 -1.09765625 4.3828125 C-1 2 -1 2 0 0 Z " fill="#EBDABB" transform="translate(125,256)"/>
<path d="M0 0 C0.99 0.33 1.98 0.66 3 1 C3.33 2.65 3.66 4.3 4 6 C2.02 6.99 2.02 6.99 0 8 C-0.38063221 5.6739143 -0.71269945 3.33944736 -1 1 C-0.67 0.67 -0.34 0.34 0 0 Z " fill="#FED59B" transform="translate(180,283)"/>
<path d="M0 0 C-0.33 0.99 -0.66 1.98 -1 3 C-1.66 3 -2.32 3 -3 3 C-3.33 3.66 -3.66 4.32 -4 5 C-5.5 3.625 -5.5 3.625 -7 2 C-7 1.34 -7 0.68 -7 0 C-4.3333581 -1.33332095 -2.83319697 -0.67102033 0 0 Z " fill="#FAEBA1" transform="translate(157,262)"/>
<path d="M0 0 C2.3125 0.1875 2.3125 0.1875 4 1 C3.34 1 2.68 1 2 1 C2.33 2.32 2.66 3.64 3 5 C0.36 5 -2.28 5 -5 5 C-2.75 2.4375 -2.75 2.4375 0 0 Z " fill="#F0DDB7" transform="translate(154,256)"/>
<path d="M0 0 C1.98 0 3.96 0 6 0 C7.06775224 1.96466413 8.06553465 3.96855359 9 6 C8.67 6.66 8.34 7.32 8 8 C7.608125 7.38125 7.21625 6.7625 6.8125 6.125 C4.72282509 3.67503632 3.02536673 2.98120002 0 2 C0 1.34 0 0.68 0 0 Z " fill="#CA4B65" transform="translate(52,257)"/>
<path d="M0 0 C3.46124816 1.15374939 3.88312583 1.87701971 5.75 4.875 C6.19859375 5.57367188 6.6471875 6.27234375 7.109375 6.9921875 C8 9 8 9 7 12 C3.95950199 8.35140239 2.03481238 4.2555467 0 0 Z " fill="#CE3B68" transform="translate(155,192)"/>
<path d="M0 0 C0.66 0 1.32 0 2 0 C2 2.97 2 5.94 2 9 C1.01 9 0.02 9 -1 9 C-1.125 2.25 -1.125 2.25 0 0 Z " fill="#E84B5B" transform="translate(73,280)"/>
<path d="M0 0 C2.64 0 5.28 0 8 0 C7.67 1.32 7.34 2.64 7 4 C6.34 4 5.68 4 5 4 C4.34 5.32 3.68 6.64 3 8 C2.375 6.125 2.375 6.125 2 4 C2.66 3.34 3.32 2.68 4 2 C2.68 1.34 1.36 0.68 0 0 Z " fill="#F9CC9D" transform="translate(298,258)"/>
<path d="M0 0 C0.33 0.66 0.66 1.32 1 2 C0.67 2.66 0.34 3.32 0 4 C0.99 4.33 1.98 4.66 3 5 C2.01 6.98 1.02 8.96 0 11 C-1 8 -1 8 0 5 C-0.99 5.33 -1.98 5.66 -3 6 C-1.125 1.125 -1.125 1.125 0 0 Z " fill="#E25A64" transform="translate(302,264)"/>
<path d="M0 0 C0.33 0.66 0.66 1.32 1 2 C-0.3125 4.625 -0.3125 4.625 -2 7 C-2.66 7 -3.32 7 -4 7 C-4.66 8.32 -5.32 9.64 -6 11 C-6.3125 8.8125 -6.3125 8.8125 -6 6 C-3.5625 3.25 -3.5625 3.25 -1 1 C-0.67 0.67 -0.34 0.34 0 0 Z " fill="#AE7D97" transform="translate(191,177)"/>
<path d="M0 0 C-3.00617269 3.00617269 -5.82381598 2.59585316 -10 3 C-7.00991906 -1.48512141 -4.87831759 -1.18661779 0 0 Z " fill="#D3736C" transform="translate(131,292)"/>
<path d="M0 0 C0.99 0.495 0.99 0.495 2 1 C2 1.66 2 2.32 2 3 C4.97 3.495 4.97 3.495 8 4 C8 4.66 8 5.32 8 6 C5.69 6.33 3.38 6.66 1 7 C0.67 4.69 0.34 2.38 0 0 Z " fill="#FDD0A3" transform="translate(162,264)"/>
<path d="M0 0 C3.55007718 3.9050849 4.81819916 6.97734643 6 12 C3 11 3 11 2.05078125 9.2578125 C1.80714844 8.55398437 1.56351562 7.85015625 1.3125 7.125 C1.06113281 6.42632812 0.80976562 5.72765625 0.55078125 5.0078125 C0 3 0 3 0 0 Z " fill="#D74269" transform="translate(63,156)"/>
<path d="M0 0 C1.32 0 2.64 0 4 0 C4 0.99 4 1.98 4 3 C4.763125 2.938125 5.52625 2.87625 6.3125 2.8125 C9 3 9 3 10.8125 4.5 C11.204375 4.995 11.59625 5.49 12 6 C7.62563349 5.49135273 4.59903281 4.57073772 1 2 C0.67 1.34 0.34 0.68 0 0 Z " fill="#FDC99F" transform="translate(110,124)"/>
<path d="M0 0 C2.89932357 2.39509338 3.50168276 4.31245243 4 8 C3.01 8.66 2.02 9.32 1 10 C0.22157062 6.59437148 -0.09978121 3.49234244 0 0 Z " fill="#DD4F61" transform="translate(286,262)"/>
<path d="M0 0 C0 3.61029169 -0.96092582 6.55806676 -2 10 C-2.99 9.67 -3.98 9.34 -5 9 C-2.25 2.25 -2.25 2.25 0 0 Z " fill="#8BA3B1" transform="translate(174,207)"/>
<path d="M0 0 C0.99 0 1.98 0 3 0 C3 2.31 3 4.62 3 7 C2.01 7 1.02 7 0 7 C0 4.69 0 2.38 0 0 Z " fill="#E03253" transform="translate(254,258)"/>
<path d="M0 0 C0.99 0 1.98 0 3 0 C1.7508258 3.45925163 0.32472205 6.14693203 -2 9 C-2.6875 7.3125 -2.6875 7.3125 -3 5 C-1.75 2.25 -1.75 2.25 0 0 Z " fill="#74C4CD" transform="translate(189,208)"/>
<path d="M0 0 C0.66 0.66 1.32 1.32 2 2 C1.34 2.66 0.68 3.32 0 4 C-1.32 4 -2.64 4 -4 4 C-4 4.66 -4 5.32 -4 6 C-5.65 6 -7.3 6 -9 6 C-5.375 3 -5.375 3 -2 3 C-2 2.34 -2 1.68 -2 1 C-1.34 0.67 -0.68 0.34 0 0 Z " fill="#79C1CA" transform="translate(271,167)"/>
<path d="M0 0 C0.33 0.99 0.66 1.98 1 3 C-0.21484375 4.82421875 -0.21484375 4.82421875 -1.9375 6.6875 C-2.50339844 7.31011719 -3.06929687 7.93273437 -3.65234375 8.57421875 C-4.09707031 9.04472656 -4.54179687 9.51523438 -5 10 C-5.33 9.01 -5.66 8.02 -6 7 C-4.625 5.5 -4.625 5.5 -3 4 C-2.34 4 -1.68 4 -1 4 C-0.67 2.68 -0.34 1.36 0 0 Z " fill="#FEC6A0" transform="translate(199,118)"/>
<path d="M0 0 C1 2 1 2 0.22265625 4.3828125 C-0.16019531 5.28773438 -0.54304688 6.19265625 -0.9375 7.125 C-1.31777344 8.03507812 -1.69804688 8.94515625 -2.08984375 9.8828125 C-2.39019531 10.58148438 -2.69054687 11.28015625 -3 12 C-3.33 12 -3.66 12 -4 12 C-4.33292585 7.75519536 -4.43885872 5.64457375 -2 2.0625 C-1.34 1.381875 -0.68 0.70125 0 0 Z " fill="#FED2A3" transform="translate(73,278)"/>
<path d="M0 0 C1.5 1.1875 1.5 1.1875 3 3 C3.1875 5.6875 3.1875 5.6875 3 8 C2.01 8.495 2.01 8.495 1 9 C-0.4783226 6.04335481 -0.06032783 3.25770263 0 0 Z " fill="#EA435A" transform="translate(62,273)"/>
<path d="M0 0 C0.66 0.33 1.32 0.66 2 1 C2 2.65 2 4.3 2 6 C0.02 6.99 0.02 6.99 -2 8 C-2.33 7.01 -2.66 6.02 -3 5 C-2.01 5 -1.02 5 0 5 C0 3.35 0 1.7 0 0 Z " fill="#E03E5B" transform="translate(186,261)"/>
<path d="M0 0 C1.65 0 3.3 0 5 0 C4.42655063 2.86724686 4.1385485 3.8614515 2 6 C2 5.01 2 4.02 2 3 C1.34 3 0.68 3 0 3 C0 2.01 0 1.02 0 0 Z " fill="#C13857" transform="translate(307,257)"/>
<path d="M0 0 C0.33 1.32 0.66 2.64 1 4 C-0.65 5.32 -2.3 6.64 -4 8 C-4.66 7.67 -5.32 7.34 -6 7 C-4.02 4.69 -2.04 2.38 0 0 Z " fill="#EA5260" transform="translate(200,120)"/>
<path d="M0 0 C0.99 0.33 1.98 0.66 3 1 C4.125 3.4375 4.125 3.4375 5 6 C5.33 6.66 5.66 7.32 6 8 C5.01 8 4.02 8 3 8 C0.89229241 5.11165997 0 3.61537605 0 0 Z " fill="#E1D7AA" transform="translate(101,282)"/>
<path d="M0 0 C1.65 0 3.3 0 5 0 C5.66 1.65 6.32 3.3 7 5 C6.34 4.67 5.68 4.34 5 4 C5 3.34 5 2.68 5 2 C4.01 2 3.02 2 2 2 C1.67 2.66 1.34 3.32 1 4 C0.67 2.68 0.34 1.36 0 0 Z " fill="#D25062" transform="translate(279,257)"/>
<path d="M0 0 C-2.76223278 2.76223278 -5.20706617 2.57856291 -9 3 C-9 2.34 -9 1.68 -9 1 C-6.04335481 -0.4783226 -3.25770263 -0.06032783 0 0 Z " fill="#7CB9C7" transform="translate(276,185)"/>
<path d="M0 0 C0.33 0 0.66 0 1 0 C1.36923077 5.53846154 1.36923077 5.53846154 -0.5 7.875 C-1.2425 8.431875 -1.2425 8.431875 -2 9 C-2.25 3.375 -2.25 3.375 0 0 Z " fill="#73B2C2" transform="translate(286,167)"/>
<path d="M0 0 C0.99 0 1.98 0 3 0 C3.33 1.98 3.66 3.96 4 6 C3.01 6 2.02 6 1 6 C0.67 4.02 0.34 2.04 0 0 Z " fill="#E43559" transform="translate(184,283)"/>
<path d="M0 0 C4 2 4 2 6 4 C5.67 5.32 5.34 6.64 5 8 C2.525 4.04 2.525 4.04 0 0 Z " fill="#EBD5B4" transform="translate(270,262)"/>
<path d="M0 0 C1.32 1.32 2.64 2.64 4 4 C3.67 4.66 3.34 5.32 3 6 C1.68 6 0.36 6 -1 6 C-1.33 5.34 -1.66 4.68 -2 4 C-1.0625 1.875 -1.0625 1.875 0 0 Z " fill="#FCC399" transform="translate(281,263)"/>
<path d="M0 0 C-0.99 0.495 -0.99 0.495 -2 1 C-2.33 1.99 -2.66 2.98 -3 4 C-3.99 3.34 -4.98 2.68 -6 2 C-6 1.34 -6 0.68 -6 0 C-3.50907189 -1.24546405 -2.58919267 -0.7767578 0 0 Z " fill="#D36E6A" transform="translate(162,257)"/>
<path d="" fill="#FFFFFF" transform="translate(0,0)"/>
<path d="" fill="#FFFFFF" transform="translate(0,0)"/>
<path d="" fill="#FFFFFF" transform="translate(0,0)"/>
<path d="" fill="#FFFFFF" transform="translate(0,0)"/>
<path d="" fill="#FFFFFF" transform="translate(0,0)"/>
<path d="" fill="#FFFFFF" transform="translate(0,0)"/>
<path d="" fill="#FFFFFF" transform="translate(0,0)"/>
<path d="" fill="#FFFFFF" transform="translate(0,0)"/>
<path d="" fill="#FFFFFF" transform="translate(0,0)"/>
<path d="" fill="#FFFFFF" transform="translate(0,0)"/>
<path d="" fill="#FFFFFF" transform="translate(0,0)"/>
<path d="" fill="#FFFFFF" transform="translate(0,0)"/>
<path d="" fill="#FFFFFF" transform="translate(0,0)"/>
<path d="" fill="#FFFFFF" transform="translate(0,0)"/>
<path d="" fill="#FFFFFF" transform="translate(0,0)"/>
<path d="" fill="#FFFFFF" transform="translate(0,0)"/>
<path d="" fill="#FFFFFF" transform="translate(0,0)"/>
<path d="" fill="#FFFFFF" transform="translate(0,0)"/>
<path d="" fill="#FFFFFF" transform="translate(0,0)"/>
<path d="" fill="#FFFFFF" transform="translate(0,0)"/>
</svg>
